<svg width="20" height="21" viewBox="0 0 20 21" fill="currentColor" xmlns="http://www.w3.org/2000/svg">
<path d="M13.4916 2.06506H6.50829C3.47496 2.06506 1.66663 3.8734 1.66663 6.90673V13.8817C1.66663 16.9234 3.47496 18.7317 6.50829 18.7317H13.4833C16.5166 18.7317 18.325 16.9234 18.325 13.8901V6.90673C18.3333 3.8734 16.525 2.06506 13.4916 2.06506ZM13.3333 11.0234H10.625V13.7317C10.625 14.0734 10.3416 14.3567 9.99996 14.3567C9.65829 14.3567 9.37496 14.0734 9.37496 13.7317V11.0234H6.66663C6.32496 11.0234 6.04163 10.7401 6.04163 10.3984C6.04163 10.0567 6.32496 9.7734 6.66663 9.7734H9.37496V7.06506C9.37496 6.7234 9.65829 6.44006 9.99996 6.44006C10.3416 6.44006 10.625 6.7234 10.625 7.06506V9.7734H13.3333C13.675 9.7734 13.9583 10.0567 13.9583 10.3984C13.9583 10.7401 13.675 11.0234 13.3333 11.0234Z" fill="currentColor"/>
</svg>
