<svg width="52" height="52" viewBox="0 0 52 52" fill="currentColor" xmlns="http://www.w3.org/2000/svg">
<path d="M32.3485 5.41536V18.1987C32.3485 19.152 31.2219 19.6287 30.5285 19.0004L26.7369 15.512C26.3252 15.122 25.6752 15.122 25.2635 15.512L21.4719 18.9787C20.7785 19.6287 19.6519 19.1304 19.6519 18.1987V5.41536C19.6519 4.8087 20.1285 4.33203 20.7352 4.33203H31.2652C31.8719 4.33203 32.3485 4.8087 32.3485 5.41536Z" />
<path d="M36.79 4.46228C36.1617 4.37561 35.5983 4.91728 35.5983 5.54561V18.5889C35.5983 20.2356 34.6233 21.7306 33.1067 22.4023C31.59 23.0523 29.835 22.7706 28.6217 21.6439L26.7367 19.9106C26.325 19.5206 25.6967 19.5206 25.2633 19.9106L23.3783 21.6439C22.5983 22.3806 21.58 22.7489 20.5617 22.7489C19.9983 22.7489 19.435 22.6406 18.8933 22.4023C17.3767 21.7306 16.4017 20.2356 16.4017 18.5889V5.54561C16.4017 4.91728 15.8383 4.37561 15.21 4.46228C9.14333 5.22061 6.5 9.31561 6.5 15.1656V36.8323C6.5 43.3323 9.75 47.6656 17.3333 47.6656H34.6667C42.25 47.6656 45.5 43.3323 45.5 36.8323V15.1656C45.5 9.31561 42.8567 5.22061 36.79 4.46228ZM37.9167 40.6239H19.5C18.6117 40.6239 17.875 39.8873 17.875 38.9989C17.875 38.1106 18.6117 37.3739 19.5 37.3739H37.9167C38.805 37.3739 39.5417 38.1106 39.5417 38.9989C39.5417 39.8873 38.805 40.6239 37.9167 40.6239ZM37.9167 31.9573H28.7083C27.82 31.9573 27.0833 31.2206 27.0833 30.3323C27.0833 29.4439 27.82 28.7073 28.7083 28.7073H37.9167C38.805 28.7073 39.5417 29.4439 39.5417 30.3323C39.5417 31.2206 38.805 31.9573 37.9167 31.9573Z" />
</svg>
