<svg width="21" height="20" viewBox="0 0 21 20" fill="none" stroke="currentColor" xmlns="http://www.w3.org/2000/svg">
<g id="vuesax/linear/archive-book">
<g id="archive-book">
<path id="Vector" d="M17.8203 5.83268V14.166C17.8203 16.666 16.5703 18.3327 13.6536 18.3327H6.98698C4.07031 18.3327 2.82031 16.666 2.82031 14.166V5.83268C2.82031 3.33268 4.07031 1.66602 6.98698 1.66602H13.6536C16.5703 1.66602 17.8203 3.33268 17.8203 5.83268Z"  stroke-width="1.5" stroke-miterlimit="10" stroke-linecap="round" stroke-linejoin="round"/>
<path id="Vector_2" d="M13.2376 1.66602V8.216C13.2376 8.58267 12.8043 8.766 12.5376 8.52433L10.6043 6.74104C10.446 6.59104 10.1959 6.59104 10.0376 6.74104L8.10432 8.52433C7.83765 8.766 7.4043 8.58267 7.4043 8.216V1.66602H13.2376Z"  stroke-width="1.5" stroke-miterlimit="10" stroke-linecap="round" stroke-linejoin="round"/>
<path id="Vector_3" d="M11.3613 11.666H14.903"  stroke-width="1.5" stroke-miterlimit="10" stroke-linecap="round" stroke-linejoin="round"/>
<path id="Vector_4" d="M7.82031 15H14.9036"  stroke-width="1.5" stroke-miterlimit="10" stroke-linecap="round" stroke-linejoin="round"/>
</g>
</g>
</svg>
