<svg width="24" height="25" viewBox="0 0 24 25" fill="currentColor" xmlns="http://www.w3.org/2000/svg">
<g id="icon-arrow-circle-right">
<g id="arrow-circle-right">
<path id="Vector" d="M12 22.5C17.5228 22.5 22 18.0228 22 12.5C22 6.97715 17.5228 2.5 12 2.5C6.47715 2.5 2 6.97715 2 12.5C2 18.0228 6.47715 22.5 12 22.5Z" fill="currentColor"/>
<path id="Vector_2" d="M10.7397 16.78C10.5497 16.78 10.3597 16.71 10.2097 16.56C9.91969 16.27 9.91969 15.79 10.2097 15.5L13.2097 12.5L10.2097 9.50003C9.91969 9.21003 9.91969 8.73003 10.2097 8.44003C10.4997 8.15003 10.9797 8.15003 11.2697 8.44003L14.7997 11.97C15.0897 12.26 15.0897 12.74 14.7997 13.03L11.2697 16.56C11.1197 16.71 10.9297 16.78 10.7397 16.78Z" fill="white"/>
</g>
</g>
</svg>
