<svg width="30" height="31" viewBox="0 0 30 31" fill="none" xmlns="http://www.w3.org/2000/svg">
<path d="M15 3C8.1 3 2.5 8.6 2.5 15.5C2.5 22.4 8.1 28 15 28C21.9 28 27.5 22.4 27.5 15.5C27.5 8.6 21.9 3 15 3ZM19.375 16.4375H12.8875L15.0375 18.5875C15.4 18.95 15.4 19.55 15.0375 19.9125C14.85 20.1 14.6125 20.1875 14.375 20.1875C14.1375 20.1875 13.9 20.1 13.7125 19.9125L9.9625 16.1625C9.6 15.8 9.6 15.2 9.9625 14.8375L13.7125 11.0875C14.075 10.725 14.675 10.725 15.0375 11.0875C15.4 11.45 15.4 12.05 15.0375 12.4125L12.8875 14.5625H19.375C19.8875 14.5625 20.3125 14.9875 20.3125 15.5C20.3125 16.0125 19.8875 16.4375 19.375 16.4375Z" fill="currentColor"/>
</svg>
