<svg width="20" height="20" viewBox="0 0 20 20" fill="currentColor" xmlns="http://www.w3.org/2000/svg">
<path d="M7.85672 3.05053L5.66513 4.32586C5.70611 3.60985 5.92633 3.10433 6.25938 2.76986C6.62939 2.39828 7.21018 2.16602 8.0582 2.16602H11.9415C12.7896 2.16602 13.3704 2.39828 13.7404 2.76986C14.0724 3.10333 14.2923 3.60684 14.3342 4.31945L12.1421 3.04999L12.1407 3.04916C10.8703 2.31919 9.12156 2.31825 7.85768 3.04997L7.85672 3.05053Z" stroke="currentColor"/>
<path d="M14.8665 6.64089L14.7498 6.58255L13.6165 5.93255L11.2665 4.57422C10.5498 4.15755 9.44984 4.15755 8.73317 4.57422L6.38317 5.92422L5.24984 6.59089L5.09984 6.66589C3.6415 7.64922 3.5415 7.83255 3.5415 9.40755V13.1742C3.5415 14.7492 3.6415 14.9326 5.13317 15.9409L8.73317 18.0159C9.0915 18.2326 9.5415 18.3242 9.99984 18.3242C10.4498 18.3242 10.9082 18.2242 11.2665 18.0159L14.8998 15.9159C16.3665 14.9326 16.4582 14.7576 16.4582 13.1742V9.40755C16.4582 7.83255 16.3582 7.64922 14.8665 6.64089ZM12.3248 11.2492L11.8165 11.8742C11.7332 11.9659 11.6748 12.1409 11.6832 12.2659L11.7332 13.0659C11.7665 13.5576 11.4165 13.8076 10.9582 13.6326L10.2165 13.3326C10.0998 13.2909 9.90817 13.2909 9.7915 13.3326L9.04984 13.6242C8.5915 13.8076 8.2415 13.5492 8.27484 13.0576L8.32484 12.2576C8.33317 12.1326 8.27484 11.9576 8.1915 11.8659L7.67484 11.2492C7.35817 10.8742 7.49984 10.4576 7.97484 10.3326L8.74984 10.1326C8.87484 10.0992 9.0165 9.98255 9.08317 9.88255L9.5165 9.21589C9.78317 8.79922 10.2082 8.79922 10.4832 9.21589L10.9165 9.88255C10.9832 9.99089 11.1332 10.0992 11.2498 10.1326L12.0248 10.3326C12.4998 10.4576 12.6415 10.8742 12.3248 11.2492Z" fill="currentColor"/>
</svg>
