<svg width="12" height="12" viewBox="0 0 12 12" fill="none" xmlns="http://www.w3.org/2000/svg">
<path d="M8.41359 7.82008C8.74859 7.60008 9.18859 7.84008 9.18859 8.24008V8.88508C9.18859 9.52008 8.69359 10.2001 8.09859 10.4001L6.50359 10.9301C6.22359 11.0251 5.76859 11.0251 5.49359 10.9301L3.89859 10.4001C3.29859 10.2001 2.80859 9.52008 2.80859 8.88508V8.23508C2.80859 7.84008 3.24859 7.60008 3.57859 7.81508L4.60859 8.48508C5.00359 8.75008 5.50359 8.88008 6.00359 8.88008C6.50359 8.88008 7.00359 8.75008 7.39859 8.48508L8.41359 7.82008Z" fill="currentColor"/>
<path d="M9.99172 3.23125L6.99672 1.26625C6.45672 0.91125 5.56672 0.91125 5.02672 1.26625L2.01672 3.23125C1.05172 3.85625 1.05172 5.27125 2.01672 5.90125L2.81672 6.42125L5.02672 7.86125C5.56672 8.21625 6.45672 8.21625 6.99672 7.86125L9.19172 6.42125L9.87672 5.97125V7.50125C9.87672 7.70625 10.0467 7.87625 10.2517 7.87625C10.4567 7.87625 10.6267 7.70625 10.6267 7.50125V5.04125C10.8267 4.39625 10.6217 3.64625 9.99172 3.23125Z" fill="currentColor"/>
</svg>
