<svg width="52" height="53" viewBox="0 0 52 53" fill="none" xmlns="http://www.w3.org/2000/svg">
<g id="vuesax/bold/book">
<path id="Vector" d="M47.6667 11.0083V36.77C47.6667 38.8716 45.955 40.8 43.8533 41.06L43.1817 41.1466C39.6283 41.6233 34.6233 43.0966 30.5933 44.7866C29.185 45.3716 27.625 44.31 27.625 42.7716V12.6333C27.625 11.8316 28.08 11.095 28.795 10.705C32.76 8.55997 38.7617 6.65331 42.835 6.30664H42.965C45.565 6.30664 47.6667 8.40831 47.6667 11.0083Z" fill="#17A2B8"/>
<path id="Vector_2" d="M23.2049 10.705C19.2399 8.55997 13.2382 6.65331 9.16486 6.30664H9.01319C6.41319 6.30664 4.31152 8.40831 4.31152 11.0083V36.77C4.31152 38.8716 6.02319 40.8 8.12486 41.06L8.79652 41.1466C12.3499 41.6233 17.3549 43.0966 21.3849 44.7866C22.7932 45.3716 24.3532 44.31 24.3532 42.7716V12.6333C24.3532 11.81 23.9199 11.095 23.2049 10.705ZM10.8332 17.27H15.7082C16.5965 17.27 17.3332 18.0066 17.3332 18.895C17.3332 19.805 16.5965 20.52 15.7082 20.52H10.8332C9.94486 20.52 9.20819 19.805 9.20819 18.895C9.20819 18.0066 9.94486 17.27 10.8332 17.27ZM17.3332 27.02H10.8332C9.94486 27.02 9.20819 26.305 9.20819 25.395C9.20819 24.5066 9.94486 23.77 10.8332 23.77H17.3332C18.2215 23.77 18.9582 24.5066 18.9582 25.395C18.9582 26.305 18.2215 27.02 17.3332 27.02Z" fill="#17A2B8"/>
</g>
</svg>
