<svg width="13" height="12" viewBox="0 0 13 12" fill="none" xmlns="http://www.w3.org/2000/svg">
<path d="M11.5703 3.90492V8.09492C11.5703 9.69991 10.2703 10.9999 8.66531 10.9999H4.47531C2.87031 10.9999 1.57031 9.69991 1.57031 8.09492V3.90492C1.57031 2.65992 2.08031 1.75492 2.98531 1.31492C3.31531 1.15492 3.69531 1.40492 3.69531 1.76992V6.20992C3.69531 6.80492 3.92531 7.27992 4.34031 7.51992C4.76031 7.75492 5.29031 7.70492 5.83031 7.37992L6.48031 6.98991C6.52031 6.96991 6.62031 6.96992 6.65031 6.98492L7.31031 7.37992C7.67031 7.59492 7.98031 7.66492 8.23031 7.66492C8.49031 7.66492 8.69031 7.58492 8.81031 7.51491C9.21531 7.27991 9.44531 6.80492 9.44531 6.20992V1.76992C9.44531 1.40492 9.83031 1.15492 10.1553 1.31492C11.0603 1.75492 11.5703 2.65992 11.5703 3.90492Z" fill="currentColor"/>
<path d="M8.19531 1C8.47031 1 8.69531 1.225 8.69531 1.5V6.21C8.69531 6.53 8.60031 6.77 8.43531 6.865C8.26531 6.965 7.99531 6.915 7.69531 6.735L7.03531 6.34C6.78031 6.185 6.36031 6.185 6.10531 6.34L5.44531 6.735C5.14531 6.915 4.87531 6.96 4.70531 6.865C4.54031 6.77 4.44531 6.53 4.44531 6.21V1.5C4.44531 1.225 4.67031 1 4.94531 1H8.19531Z" fill="currentColor"/>
</svg>
