<svg width="44" height="45" viewBox="0 0 44 45" fill="none" xmlns="http://www.w3.org/2000/svg">
<g id="vuesax/bold/building-4">
<g id="building-4">
<path id="Vector" d="M20.7564 6H9.33469C5.68636 6 3.85303 7.85167 3.85303 11.5367V40.8333H13.753V33.9583C13.753 33.2067 14.3764 32.5833 15.128 32.5833C15.8797 32.5833 16.503 33.1883 16.503 33.9583V40.8333H26.2197V11.5367C26.2197 7.85167 24.4047 6 20.7564 6ZM19.7114 23.875H10.6364C9.8847 23.875 9.26136 23.2517 9.26136 22.5C9.26136 21.7483 9.8847 21.125 10.6364 21.125H19.7114C20.463 21.125 21.0864 21.7483 21.0864 22.5C21.0864 23.2517 20.463 23.875 19.7114 23.875ZM19.7114 17H10.6364C9.8847 17 9.26136 16.3767 9.26136 15.625C9.26136 14.8733 9.8847 14.25 10.6364 14.25H19.7114C20.463 14.25 21.0864 14.8733 21.0864 15.625C21.0864 16.3767 20.463 17 19.7114 17Z" fill="#1B31FF"/>
<path id="Vector_2" d="M42.1668 39.4585H38.0052V33.9585C39.7468 33.3901 41.0118 31.7585 41.0118 29.8335V26.1668C41.0118 23.7651 39.0502 21.8035 36.6485 21.8035C34.2468 21.8035 32.2852 23.7651 32.2852 26.1668V29.8335C32.2852 31.7401 33.5318 33.3535 35.2368 33.9401V39.4585H1.8335C1.08183 39.4585 0.458496 40.0818 0.458496 40.8335C0.458496 41.5851 1.08183 42.2085 1.8335 42.2085H36.5385C36.5752 42.2085 36.5935 42.2268 36.6302 42.2268C36.6668 42.2268 36.6852 42.2085 36.7218 42.2085H42.1668C42.9185 42.2085 43.5418 41.5851 43.5418 40.8335C43.5418 40.0818 42.9185 39.4585 42.1668 39.4585Z" fill="#1B31FF"/>
</g>
</g>
</svg>
