<svg width="20" height="20" viewBox="0 0 20 20" fill="none" xmlns="http://www.w3.org/2000/svg">
<path d="M13.9584 2.9665V1.6665C13.9584 1.32484 13.6751 1.0415 13.3334 1.0415C12.9918 1.0415 12.7084 1.32484 12.7084 1.6665V2.9165H7.29178V1.6665C7.29178 1.32484 7.00844 1.0415 6.66678 1.0415C6.32511 1.0415 6.04178 1.32484 6.04178 1.6665V2.9665C3.79178 3.17484 2.70011 4.5165 2.53344 6.50817C2.51678 6.74984 2.71678 6.94984 2.95011 6.94984H17.0501C17.2918 6.94984 17.4918 6.7415 17.4668 6.50817C17.3001 4.5165 16.2084 3.17484 13.9584 2.9665Z" fill="currentColor"/>
<path fill-rule="evenodd" clip-rule="evenodd" d="M3.33333 8.19971H16.6667C17.125 8.19971 17.5 8.57471 17.5 9.03304V14.1664C17.5 16.6664 16.25 18.333 13.3333 18.333H6.66667C3.75 18.333 2.5 16.6664 2.5 14.1664V9.03304C2.5 8.57471 2.875 8.19971 3.33333 8.19971ZM11.3554 11.1017L10.593 9.79381C10.1814 9.08597 9.53037 9.09259 9.14361 9.80782L8.43559 11.1356C8.34055 11.3191 8.0785 11.4953 7.85523 11.533L6.53249 11.7468C5.68534 11.8842 5.50121 12.4389 6.12091 12.9791L7.18295 13.8976C7.35996 14.0507 7.46192 14.3554 7.41086 14.5708L7.13741 15.7225C6.92361 16.6327 7.46925 16.9786 8.35231 16.4959L9.58589 15.8205C9.80761 15.6994 10.1775 15.6922 10.4074 15.8107L11.6694 16.4592C12.5728 16.9234 13.1024 16.5639 12.8512 15.6585L12.5317 14.5116C12.4704 14.2978 12.5641 13.9909 12.7339 13.833L13.7508 12.891C14.3477 12.3349 14.1405 11.7845 13.2866 11.6684L11.953 11.4843C11.7289 11.456 11.4598 11.2812 11.3554 11.1017Z" fill="currentColor"/>
</svg>
