<svg width="50" height="51" viewBox="0 0 50 51" fill="none" xmlns="http://www.w3.org/2000/svg">
<g id="vuesax/bold/calendar-tick">
<g id="calendar-tick">
<path id="Vector" d="M34.8965 7.91675V4.66675C34.8965 3.81258 34.1881 3.10425 33.334 3.10425C32.4798 3.10425 31.7715 3.81258 31.7715 4.66675V7.79175H18.2298V4.66675C18.2298 3.81258 17.5215 3.10425 16.6673 3.10425C15.8131 3.10425 15.1048 3.81258 15.1048 4.66675V7.91675C9.47981 8.43758 6.75064 11.7918 6.33397 16.7709C6.29231 17.3751 6.79231 17.8751 7.37564 17.8751H42.6256C43.2298 17.8751 43.7298 17.3543 43.6673 16.7709C43.2506 11.7918 40.5215 8.43758 34.8965 7.91675Z" fill="#FCAF17"/>
<path id="Vector_2" d="M39.5833 31.75C34.9792 31.75 31.25 35.4792 31.25 40.0833C31.25 41.6458 31.6875 43.125 32.4583 44.375C33.8958 46.7917 36.5417 48.4167 39.5833 48.4167C42.625 48.4167 45.2708 46.7917 46.7083 44.375C47.4792 43.125 47.9167 41.6458 47.9167 40.0833C47.9167 35.4792 44.1875 31.75 39.5833 31.75ZM43.8958 39.1875L39.4583 43.2917C39.1667 43.5625 38.7708 43.7083 38.3958 43.7083C38 43.7083 37.6042 43.5625 37.2917 43.25L35.2292 41.1875C34.625 40.5833 34.625 39.5833 35.2292 38.9792C35.8333 38.375 36.8333 38.375 37.4375 38.9792L38.4375 39.9792L41.7708 36.8958C42.3958 36.3125 43.3958 36.3542 43.9792 36.9792C44.5625 37.6042 44.5208 38.5833 43.8958 39.1875Z" fill="#FCAF17"/>
<path id="Vector_3" d="M41.6667 21.0002H8.33333C7.1875 21.0002 6.25 21.9377 6.25 23.0836V35.9169C6.25 42.1669 9.375 46.3336 16.6667 46.3336H26.9375C28.375 46.3336 29.375 44.9378 28.9167 43.5836C28.5 42.3753 28.1458 41.0419 28.1458 40.0836C28.1458 33.7711 33.2917 28.6252 39.6042 28.6252C40.2083 28.6252 40.8125 28.6669 41.3958 28.7711C42.6458 28.9586 43.7708 27.9794 43.7708 26.7294V23.1044C43.75 21.9377 42.8125 21.0002 41.6667 21.0002ZM19.1875 38.4377C18.7917 38.8127 18.25 39.0419 17.7083 39.0419C17.1667 39.0419 16.625 38.8127 16.2292 38.4377C15.8542 38.0419 15.625 37.5002 15.625 36.9586C15.625 36.4169 15.8542 35.8753 16.2292 35.4794C16.4375 35.2919 16.6458 35.1461 16.9167 35.0419C17.6875 34.7086 18.6042 34.8961 19.1875 35.4794C19.5625 35.8753 19.7917 36.4169 19.7917 36.9586C19.7917 37.5002 19.5625 38.0419 19.1875 38.4377ZM19.1875 31.1461C19.0833 31.2294 18.9792 31.3127 18.875 31.3961C18.75 31.4794 18.625 31.5419 18.5 31.5836C18.375 31.6461 18.25 31.6877 18.125 31.7086C17.9792 31.7294 17.8333 31.7502 17.7083 31.7502C17.1667 31.7502 16.625 31.5211 16.2292 31.1461C15.8542 30.7502 15.625 30.2086 15.625 29.6669C15.625 29.1252 15.8542 28.5836 16.2292 28.1877C16.7083 27.7086 17.4375 27.4794 18.125 27.6252C18.25 27.6461 18.375 27.6877 18.5 27.7502C18.625 27.7919 18.75 27.8544 18.875 27.9377C18.9792 28.0211 19.0833 28.1044 19.1875 28.1877C19.5625 28.5836 19.7917 29.1252 19.7917 29.6669C19.7917 30.2086 19.5625 30.7502 19.1875 31.1461ZM26.4792 31.1461C26.0833 31.5211 25.5417 31.7502 25 31.7502C24.4583 31.7502 23.9167 31.5211 23.5208 31.1461C23.1458 30.7502 22.9167 30.2086 22.9167 29.6669C22.9167 29.1252 23.1458 28.5836 23.5208 28.1877C24.3125 27.4169 25.7083 27.4169 26.4792 28.1877C26.8542 28.5836 27.0833 29.1252 27.0833 29.6669C27.0833 30.2086 26.8542 30.7502 26.4792 31.1461Z" fill="#FCAF17"/>
</g>
</g>
</svg>
