<svg width="50" height="50" viewBox="0 0 50 50" fill="none" xmlns="http://www.w3.org/2000/svg">
<path d="M34.8965 7.41602V4.16602C34.8965 3.31185 34.1881 2.60352 33.334 2.60352C32.4798 2.60352 31.7715 3.31185 31.7715 4.16602V7.29102H18.2298V4.16602C18.2298 3.31185 17.5215 2.60352 16.6673 2.60352C15.8131 2.60352 15.1048 3.31185 15.1048 4.16602V7.41602C9.47981 7.93685 6.75064 11.291 6.33397 16.2702C6.29231 16.8743 6.79231 17.3743 7.37564 17.3743H42.6256C43.2298 17.3743 43.7298 16.8535 43.6673 16.2702C43.2506 11.291 40.5215 7.93685 34.8965 7.41602Z" fill="currentColor"/>
<path d="M41.6667 20.5H8.33333C7.1875 20.5 6.25 21.4375 6.25 22.5833V35.4167C6.25 41.6667 9.375 45.8333 16.6667 45.8333H26.9375C28.375 45.8333 29.375 44.4375 28.9167 43.0833C28.5 41.875 28.1458 40.5417 28.1458 39.5833C28.1458 33.2708 33.2917 28.125 39.6042 28.125C40.2083 28.125 40.8125 28.1667 41.3958 28.2708C42.6458 28.4583 43.7708 27.4792 43.7708 26.2292V22.6042C43.75 21.4375 42.8125 20.5 41.6667 20.5ZM19.1875 36.8958C18.9792 37.0833 18.75 37.2292 18.5 37.3333C18.25 37.4375 17.9792 37.5 17.7083 37.5C17.4375 37.5 17.1667 37.4375 16.9167 37.3333C16.6667 37.2292 16.4375 37.0833 16.2292 36.8958C15.8542 36.5 15.625 35.9583 15.625 35.4167C15.625 35.2917 15.6458 35.1458 15.6667 35.0208C15.6875 34.875 15.7292 34.75 15.7917 34.625C15.8333 34.5 15.8958 34.375 15.9792 34.25C16.0417 34.1458 16.1458 34.0417 16.2292 33.9375C16.4375 33.75 16.6667 33.6042 16.9167 33.5C17.4167 33.2917 18 33.2917 18.5 33.5C18.75 33.6042 18.9792 33.75 19.1875 33.9375C19.2708 34.0417 19.375 34.1458 19.4375 34.25C19.5208 34.375 19.5833 34.5 19.625 34.625C19.6875 34.75 19.7292 34.875 19.75 35.0208C19.7708 35.1458 19.7917 35.2917 19.7917 35.4167C19.7917 35.9583 19.5625 36.5 19.1875 36.8958ZM19.1875 29.6042C18.9792 29.7917 18.75 29.9375 18.5 30.0417C18.25 30.1458 17.9792 30.2083 17.7083 30.2083C17.4375 30.2083 17.1667 30.1458 16.9167 30.0417C16.6458 29.9375 16.4375 29.7917 16.2292 29.6042C15.8542 29.2083 15.625 28.6667 15.625 28.125C15.625 27.5833 15.8542 27.0417 16.2292 26.6458C16.4375 26.4583 16.6667 26.3125 16.9167 26.2083C17.4167 26 18 26 18.5 26.2083C18.75 26.3125 18.9792 26.4583 19.1875 26.6458C19.2708 26.75 19.375 26.8542 19.4375 26.9583C19.5208 27.0833 19.5833 27.2083 19.625 27.3333C19.6875 27.4583 19.7292 27.5833 19.75 27.7083C19.7708 27.8542 19.7917 28 19.7917 28.125C19.7917 28.6667 19.5625 29.2083 19.1875 29.6042ZM26.4792 29.6042C26.0833 29.9792 25.5625 30.2083 25 30.2083C24.7292 30.2083 24.4583 30.1458 24.2083 30.0417C23.9375 29.9375 23.7292 29.7917 23.5208 29.6042C23.1458 29.2083 22.9167 28.6667 22.9167 28.125C22.9167 28 22.9375 27.8542 22.9583 27.7083C22.9792 27.5833 23.0208 27.4583 23.0833 27.3333C23.125 27.2083 23.1875 27.0833 23.2708 26.9583C23.3542 26.8542 23.4375 26.75 23.5208 26.6458C24.2917 25.875 25.6875 25.875 26.4792 26.6458C26.5625 26.75 26.6458 26.8542 26.7292 26.9583C26.8125 27.0833 26.875 27.2083 26.9167 27.3333C26.9792 27.4583 27.0208 27.5833 27.0417 27.7083C27.0625 27.8542 27.0833 28 27.0833 28.125C27.0833 28.6667 26.8542 29.2083 26.4792 29.6042Z" fill="currentColor"/>
<path d="M42.2401 33.8754L42.8801 35.1756C43.2001 35.8158 44.0201 36.4159 44.7001 36.5359L45.5601 36.6759C48.1802 37.116 48.7802 39.0364 46.9202 40.9167L46.1201 41.7169C45.5801 42.257 45.3001 43.2972 45.4601 44.0574L45.5601 44.5375C46.2801 47.6981 44.6001 48.9183 41.86 47.258L41.28 46.8979C40.58 46.4778 39.42 46.4778 38.72 46.8979L38.14 47.258C35.3799 48.9183 33.7199 47.6981 34.4399 44.5375L34.5399 44.0574C34.6999 43.3172 34.4199 42.257 33.8799 41.7169L33.0798 40.9167C31.2198 39.0164 31.8198 37.116 34.4399 36.6759L35.2999 36.5359C35.9999 36.4159 36.7999 35.8158 37.1199 35.1756L37.7599 33.8754C39 31.3749 41 31.3749 42.2401 33.8754Z" fill="currentColor"/>
</svg>
