<svg width="13" height="12" viewBox="0 0 13 12" fill="none" xmlns="http://www.w3.org/2000/svg">
<path d="M8.87511 1.78V1C8.87511 0.795 8.70511 0.625 8.50011 0.625C8.29511 0.625 8.12511 0.795 8.12511 1V1.75H4.87511V1C4.87511 0.795 4.70511 0.625 4.50011 0.625C4.29511 0.625 4.12511 0.795 4.12511 1V1.78C2.77511 1.905 2.12011 2.71 2.02011 3.905C2.01011 4.05 2.13011 4.17 2.27011 4.17H10.7301C10.8751 4.17 10.9951 4.045 10.9801 3.905C10.8801 2.71 10.2251 1.905 8.87511 1.78Z" fill="currentColor"/>
<path d="M10.5 4.92188H2.5C2.225 4.92188 2 5.14687 2 5.42188V8.50187C2 10.0019 2.75 11.0019 4.5 11.0019H8.5C10.25 11.0019 11 10.0019 11 8.50187V5.42188C11 5.14687 10.775 4.92188 10.5 4.92188ZM5.105 9.10687C5.055 9.15187 5 9.18687 4.94 9.21187C4.88 9.23688 4.815 9.25187 4.75 9.25187C4.685 9.25187 4.62 9.23688 4.56 9.21187C4.5 9.18687 4.445 9.15187 4.395 9.10687C4.305 9.01187 4.25 8.88188 4.25 8.75187C4.25 8.62187 4.305 8.49188 4.395 8.39688C4.445 8.35188 4.5 8.31687 4.56 8.29187C4.68 8.24187 4.82 8.24187 4.94 8.29187C5 8.31687 5.055 8.35188 5.105 8.39688C5.195 8.49188 5.25 8.62187 5.25 8.75187C5.25 8.88188 5.195 9.01187 5.105 9.10687ZM5.21 7.19187C5.185 7.25187 5.15 7.30687 5.105 7.35687C5.055 7.40188 5 7.43687 4.94 7.46187C4.88 7.48688 4.815 7.50187 4.75 7.50187C4.685 7.50187 4.62 7.48688 4.56 7.46187C4.5 7.43687 4.445 7.40188 4.395 7.35687C4.35 7.30687 4.315 7.25187 4.29 7.19187C4.265 7.13188 4.25 7.06687 4.25 7.00187C4.25 6.93687 4.265 6.87187 4.29 6.81187C4.315 6.75187 4.35 6.69687 4.395 6.64687C4.445 6.60187 4.5 6.56687 4.56 6.54187C4.68 6.49187 4.82 6.49187 4.94 6.54187C5 6.56687 5.055 6.60187 5.105 6.64687C5.15 6.69687 5.185 6.75187 5.21 6.81187C5.235 6.87187 5.25 6.93687 5.25 7.00187C5.25 7.06687 5.235 7.13188 5.21 7.19187ZM6.855 7.35687C6.805 7.40188 6.75 7.43687 6.69 7.46187C6.63 7.48688 6.565 7.50187 6.5 7.50187C6.435 7.50187 6.37 7.48688 6.31 7.46187C6.25 7.43687 6.195 7.40188 6.145 7.35687C6.055 7.26187 6 7.13188 6 7.00187C6 6.87187 6.055 6.74187 6.145 6.64687C6.195 6.60187 6.25 6.56687 6.31 6.54187C6.43 6.48687 6.57 6.48687 6.69 6.54187C6.75 6.56687 6.805 6.60187 6.855 6.64687C6.945 6.74187 7 6.87187 7 7.00187C7 7.13188 6.945 7.26187 6.855 7.35687Z" fill="currentColor"/>
</svg>
