<svg width="50" height="51" viewBox="0 0 50 51" fill="none" xmlns="http://www.w3.org/2000/svg">
<path d="M34.8965 7.91602V4.66602C34.8965 3.81185 34.1881 3.10352 33.334 3.10352C32.4798 3.10352 31.7715 3.81185 31.7715 4.66602V7.79102H18.2298V4.66602C18.2298 3.81185 17.5215 3.10352 16.6673 3.10352C15.8131 3.10352 15.1048 3.81185 15.1048 4.66602V7.91602C9.47981 8.43685 6.75064 11.791 6.33397 16.7702C6.29231 17.3743 6.79231 17.8743 7.37564 17.8743H42.6256C43.2298 17.8743 43.7298 17.3535 43.6673 16.7702C43.2506 11.791 40.5215 8.43685 34.8965 7.91602Z" fill="currentColor"/>
<path d="M41.6667 21H8.33333C7.1875 21 6.25 21.9375 6.25 23.0833V35.9167C6.25 42.1667 9.375 46.3333 16.6667 46.3333H26.9375C28.375 46.3333 29.375 44.9375 28.9167 43.5833C28.5 42.375 28.1458 41.0417 28.1458 40.0833C28.1458 33.7708 33.2917 28.625 39.6042 28.625C40.2083 28.625 40.8125 28.6667 41.3958 28.7708C42.6458 28.9583 43.7708 27.9792 43.7708 26.7292V23.1042C43.75 21.9375 42.8125 21 41.6667 21ZM19.1875 37.3958C18.9792 37.5833 18.75 37.7292 18.5 37.8333C18.25 37.9375 17.9792 38 17.7083 38C17.4375 38 17.1667 37.9375 16.9167 37.8333C16.6667 37.7292 16.4375 37.5833 16.2292 37.3958C15.8542 37 15.625 36.4583 15.625 35.9167C15.625 35.7917 15.6458 35.6458 15.6667 35.5208C15.6875 35.375 15.7292 35.25 15.7917 35.125C15.8333 35 15.8958 34.875 15.9792 34.75C16.0417 34.6458 16.1458 34.5417 16.2292 34.4375C16.4375 34.25 16.6667 34.1042 16.9167 34C17.4167 33.7917 18 33.7917 18.5 34C18.75 34.1042 18.9792 34.25 19.1875 34.4375C19.2708 34.5417 19.375 34.6458 19.4375 34.75C19.5208 34.875 19.5833 35 19.625 35.125C19.6875 35.25 19.7292 35.375 19.75 35.5208C19.7708 35.6458 19.7917 35.7917 19.7917 35.9167C19.7917 36.4583 19.5625 37 19.1875 37.3958ZM19.1875 30.1042C18.9792 30.2917 18.75 30.4375 18.5 30.5417C18.25 30.6458 17.9792 30.7083 17.7083 30.7083C17.4375 30.7083 17.1667 30.6458 16.9167 30.5417C16.6458 30.4375 16.4375 30.2917 16.2292 30.1042C15.8542 29.7083 15.625 29.1667 15.625 28.625C15.625 28.0833 15.8542 27.5417 16.2292 27.1458C16.4375 26.9583 16.6667 26.8125 16.9167 26.7083C17.4167 26.5 18 26.5 18.5 26.7083C18.75 26.8125 18.9792 26.9583 19.1875 27.1458C19.2708 27.25 19.375 27.3542 19.4375 27.4583C19.5208 27.5833 19.5833 27.7083 19.625 27.8333C19.6875 27.9583 19.7292 28.0833 19.75 28.2083C19.7708 28.3542 19.7917 28.5 19.7917 28.625C19.7917 29.1667 19.5625 29.7083 19.1875 30.1042ZM26.4792 30.1042C26.0833 30.4792 25.5625 30.7083 25 30.7083C24.7292 30.7083 24.4583 30.6458 24.2083 30.5417C23.9375 30.4375 23.7292 30.2917 23.5208 30.1042C23.1458 29.7083 22.9167 29.1667 22.9167 28.625C22.9167 28.5 22.9375 28.3542 22.9583 28.2083C22.9792 28.0833 23.0208 27.9583 23.0833 27.8333C23.125 27.7083 23.1875 27.5833 23.2708 27.4583C23.3542 27.3542 23.4375 27.25 23.5208 27.1458C24.2917 26.375 25.6875 26.375 26.4792 27.1458C26.5625 27.25 26.6458 27.3542 26.7292 27.4583C26.8125 27.5833 26.875 27.7083 26.9167 27.8333C26.9792 27.9583 27.0208 28.0833 27.0417 28.2083C27.0625 28.3542 27.0833 28.5 27.0833 28.625C27.0833 29.1667 26.8542 29.7083 26.4792 30.1042Z" fill="currentColor"/>
<path d="M43.3159 32.012H35.6843C34.0059 32.012 32.6284 33.3895 32.6284 35.0678V46.2224C32.6284 47.6474 33.6497 48.249 34.9005 47.5603L38.7638 45.4149C39.1755 45.1853 39.8405 45.1853 40.2443 45.4149L44.1076 47.5603C45.3584 48.257 46.3797 47.6553 46.3797 46.2224V35.0678C46.3718 33.3895 45.0022 32.012 43.3159 32.012ZM42.3659 37.6486L39.1993 40.8153C39.0805 40.934 38.9301 40.9895 38.7797 40.9895C38.6293 40.9895 38.4788 40.934 38.3601 40.8153L37.1726 39.6278C36.943 39.3982 36.943 39.0182 37.1726 38.7886C37.4022 38.559 37.7822 38.559 38.0118 38.7886L38.7797 39.5565L41.5268 36.8095C41.7563 36.5799 42.1363 36.5799 42.3659 36.8095C42.5955 37.039 42.5955 37.419 42.3659 37.6486Z" fill="currentColor"/>
</svg>
