<svg width="21" height="20" viewBox="0 0 21 20" fill="none" xmlns="http://www.w3.org/2000/svg">
<path d="M14.9883 8.33329H16.6549C18.3216 8.33329 19.1549 7.49996 19.1549 5.83329V4.16663C19.1549 2.49996 18.3216 1.66663 16.6549 1.66663H14.9883C13.3216 1.66663 12.4883 2.49996 12.4883 4.16663V5.83329C12.4883 7.49996 13.3216 8.33329 14.9883 8.33329Z" stroke="#717171" stroke-width="1.25" stroke-miterlimit="10" stroke-linecap="round" stroke-linejoin="round"/>
<path d="M4.98828 18.3333H6.65495C8.32161 18.3333 9.15495 17.5 9.15495 15.8333V14.1666C9.15495 12.5 8.32161 11.6666 6.65495 11.6666H4.98828C3.32161 11.6666 2.48828 12.5 2.48828 14.1666V15.8333C2.48828 17.5 3.32161 18.3333 4.98828 18.3333Z" stroke="#717171" stroke-width="1.25" stroke-miterlimit="10" stroke-linecap="round" stroke-linejoin="round"/>
<path d="M5.82161 8.33329C7.66256 8.33329 9.15495 6.84091 9.15495 4.99996C9.15495 3.15901 7.66256 1.66663 5.82161 1.66663C3.98067 1.66663 2.48828 3.15901 2.48828 4.99996C2.48828 6.84091 3.98067 8.33329 5.82161 8.33329Z" stroke="#717171" stroke-width="1.25" stroke-miterlimit="10" stroke-linecap="round" stroke-linejoin="round"/>
<path d="M15.8216 18.3333C17.6626 18.3333 19.1549 16.8409 19.1549 15C19.1549 13.159 17.6626 11.6666 15.8216 11.6666C13.9807 11.6666 12.4883 13.159 12.4883 15C12.4883 16.8409 13.9807 18.3333 15.8216 18.3333Z" stroke="#717171" stroke-width="1.25" stroke-miterlimit="10" stroke-linecap="round" stroke-linejoin="round"/>
</svg>
