<svg width="24" height="24" viewBox="0 0 24 24" fill="none" xmlns="http://www.w3.org/2000/svg">
<g id="vuesax/bold/edit-2">
<g id="edit-2">
<path id="Vector" d="M21 21.5H3C2.86614 21.5 2.75 21.3839 2.75 21.25C2.75 21.1161 2.86614 21 3 21H21C21.1339 21 21.25 21.1161 21.25 21.25C21.25 21.3839 21.1339 21.5 21 21.5Z" fill="#A7A7A7" stroke="#A7A7A7"/>
<path id="Vector_2" d="M18.666 3.83322L18.666 3.83323L18.6678 3.83499C19.6128 4.77049 19.9978 5.60837 19.9896 6.41462L19.9896 6.41462V6.41967C19.9896 7.19713 19.6047 8.02695 18.6678 8.95433L18.6678 8.95431L18.6646 8.95759L17.5051 10.1268C15.0571 9.40877 13.0952 7.44861 12.3747 5.00167L13.5431 3.83322C14.4855 2.89086 15.3371 2.50084 16.1201 2.50591C16.9049 2.51098 17.7464 2.91355 18.666 3.83322Z" fill="#A7A7A7" stroke="#A7A7A7"/>
<path id="Vector_3" d="M15.6103 11.5298C15.3203 11.3898 15.0403 11.2498 14.7703 11.0898C14.5503 10.9598 14.3403 10.8198 14.1303 10.6698C13.9603 10.5598 13.7603 10.3998 13.5703 10.2398C13.5503 10.2298 13.4803 10.1698 13.4003 10.0898C13.0703 9.8098 12.7003 9.4498 12.3703 9.0498C12.3403 9.0298 12.2903 8.9598 12.2203 8.8698C12.1203 8.7498 11.9503 8.5498 11.8003 8.3198C11.6803 8.1698 11.5403 7.9498 11.4103 7.7298C11.2503 7.4598 11.1103 7.1898 10.9703 6.9098C10.9491 6.86441 10.9286 6.81924 10.9088 6.77434C10.7612 6.44102 10.3265 6.34358 10.0688 6.60133L4.34032 12.3298C4.21032 12.4598 4.09032 12.7098 4.06032 12.8798L3.52032 16.7098C3.42032 17.3898 3.61032 18.0298 4.03032 18.4598C4.39032 18.8098 4.89032 18.9998 5.43032 18.9998C5.55032 18.9998 5.67032 18.9898 5.79032 18.9698L9.63032 18.4298C9.81032 18.3998 10.0603 18.2798 10.1803 18.1498L15.9016 12.4285C16.1612 12.1689 16.0633 11.7235 15.7257 11.5794C15.6877 11.5632 15.6492 11.5467 15.6103 11.5298Z" fill="#A7A7A7"/>
</g>
</g>
</svg>
