<svg width="12" height="9" viewBox="0 0 12 9" fill="none" xmlns="http://www.w3.org/2000/svg">
<path fill-rule="evenodd" clip-rule="evenodd" d="M10.9601 0.560434C10.3743 -0.0253527 9.42456 -0.025353 8.83877 0.560433L4.94971 4.4495L3.182 2.68179C2.59621 2.096 1.64646 2.096 1.06068 2.68179C0.474891 3.26758 0.474891 4.21732 1.06068 4.80311L3.88199 7.62442C3.88432 7.62679 3.88667 7.62915 3.88902 7.6315C4.01716 7.75964 4.16272 7.85975 4.31807 7.93183C4.34027 7.94213 4.36266 7.95185 4.38523 7.96101C4.92695 8.18072 5.57106 8.0709 6.01043 7.63154C6.01416 7.6278 6.01788 7.62404 6.02157 7.62028L10.9601 2.68175C11.5459 2.09597 11.5459 1.14622 10.9601 0.560434Z" fill="white"/>
</svg>
