<svg width="12" height="13" viewBox="0 0 12 13" fill="none" xmlns="http://www.w3.org/2000/svg">
<path d="M6.00073 1.23438C3.24573 1.23438 1.00073 3.47937 1.00073 6.23438C1.00073 8.98938 3.24573 11.2344 6.00073 11.2344C8.75573 11.2344 11.0007 8.98938 11.0007 6.23438C11.0007 3.47937 8.75573 1.23438 6.00073 1.23438ZM8.39073 5.08437L5.55573 7.91937C5.48573 7.98938 5.39073 8.02938 5.29073 8.02938C5.19073 8.02938 5.09573 7.98938 5.02573 7.91937L3.61073 6.50437C3.46573 6.35938 3.46573 6.11937 3.61073 5.97437C3.75573 5.82937 3.99573 5.82937 4.14073 5.97437L5.29073 7.12437L7.86073 4.55438C8.00573 4.40938 8.24573 4.40938 8.39073 4.55438C8.53573 4.69938 8.53573 4.93437 8.39073 5.08437Z" fill="#3EB44A"/>
</svg>
