<svg width="31" height="31" viewBox="0 0 31 31" fill="none" xmlns="http://www.w3.org/2000/svg">
<circle cx="15.5" cy="15.1914" r="14.5" stroke="#0CA6ED"/>
<path d="M27.5 15.0102C27.5 21.6376 22.1274 27.0102 15.5 27.0102C8.87258 27.0102 3.5 21.6376 3.5 15.0102C3.5 8.38281 8.87258 3.01023 15.5 3.01023C22.1274 3.01023 27.5 8.38281 27.5 15.0102Z" fill="#0CA6ED"/>
<path d="M15.4997 6.5835C11.1376 6.5835 7.58301 10.1381 7.58301 14.5002C7.58301 18.8622 11.1376 22.4168 15.4997 22.4168C19.8618 22.4168 23.4163 18.8622 23.4163 14.5002C23.4163 10.1381 19.8618 6.5835 15.4997 6.5835ZM18.9434 17.3264C18.8326 17.5164 18.6347 17.6193 18.4288 17.6193C18.3259 17.6193 18.223 17.5956 18.128 17.5322L15.6738 16.0677C15.0643 15.7035 14.613 14.9039 14.613 14.1993V10.9535C14.613 10.6289 14.8822 10.3597 15.2068 10.3597C15.5313 10.3597 15.8005 10.6289 15.8005 10.9535V14.1993C15.8005 14.4843 16.038 14.9039 16.2834 15.0464L18.7376 16.511C19.0226 16.6772 19.1176 17.0414 18.9434 17.3264Z" fill="white"/>
</svg>
