<svg width="33" height="32" viewBox="0 0 33 32" fill="currentColor" xmlns="http://www.w3.org/2000/svg">
<circle cx="16.2" cy="15.9987" r="10.6667" fill="white"/>
<path d="M16.1999 2.66797C8.85324 2.66797 2.86658 8.65464 2.86658 16.0013C2.86658 23.348 8.85324 29.3346 16.1999 29.3346C23.5466 29.3346 29.5332 23.348 29.5332 16.0013C29.5332 8.65464 23.5466 2.66797 16.1999 2.66797ZM20.6799 19.068C21.0666 19.4546 21.0666 20.0946 20.6799 20.4813C20.4799 20.6813 20.2266 20.7746 19.9732 20.7746C19.7199 20.7746 19.4666 20.6813 19.2666 20.4813L16.1999 17.4146L13.1332 20.4813C12.9332 20.6813 12.6799 20.7746 12.4266 20.7746C12.1732 20.7746 11.9199 20.6813 11.7199 20.4813C11.3332 20.0946 11.3332 19.4546 11.7199 19.068L14.7866 16.0013L11.7199 12.9346C11.3332 12.548 11.3332 11.908 11.7199 11.5213C12.1066 11.1346 12.7466 11.1346 13.1332 11.5213L16.1999 14.588L19.2666 11.5213C19.6532 11.1346 20.2932 11.1346 20.6799 11.5213C21.0666 11.908 21.0666 12.548 20.6799 12.9346L17.6132 16.0013L20.6799 19.068Z" />
</svg>
