<svg width="17" height="17" viewBox="0 0 17 17" fill="none" xmlns="http://www.w3.org/2000/svg">
<path d="M10.9054 8.79286V11.6555C10.9054 14.041 9.95118 14.9952 7.56565 14.9952H4.70302C2.31749 14.9952 1.36328 14.041 1.36328 11.6555V8.79286C1.36328 6.40734 2.31749 5.45312 4.70302 5.45312H7.56565C9.95118 5.45312 10.9054 6.40734 10.9054 8.79286Z" fill="currentColor"/>
<path d="M11.655 1.36328H8.79239C6.7818 1.36328 5.79273 2.04596 5.53119 3.684C5.45139 4.18377 5.87296 4.60078 6.37906 4.60078H7.56555C10.4282 4.60078 11.7573 5.92986 11.7573 8.79249V9.97898C11.7573 10.4851 12.1743 10.9066 12.674 10.8269C14.3121 10.5653 14.9948 9.57625 14.9948 7.56565V4.70302C14.9948 2.31749 14.0406 1.36328 11.655 1.36328Z" fill="currentColor"/>
</svg>
