<svg width="13" height="12" viewBox="0 0 13 12" fill="none" xmlns="http://www.w3.org/2000/svg">
<path d="M8.47016 1.10524C8.26516 0.900241 7.91016 1.04024 7.91016 1.32524V3.07024C7.91016 3.80024 8.53016 4.40524 9.28516 4.40524C9.76016 4.41024 10.4202 4.41024 10.9852 4.41024C11.2702 4.41024 11.4202 4.07524 11.2202 3.87524C10.5002 3.15024 9.21016 1.84524 8.47016 1.10524Z" fill="currentColor"/>
<path d="M10.8203 5.095H9.37531C8.19031 5.095 7.22531 4.13 7.22531 2.945V1.5C7.22531 1.225 7.00031 1 6.72531 1H4.60531C3.06531 1 1.82031 2 1.82031 3.785V8.215C1.82031 10 3.06531 11 4.60531 11H8.53531C10.0753 11 11.3203 10 11.3203 8.215V5.595C11.3203 5.32 11.0953 5.095 10.8203 5.095ZM6.32031 8.875H4.32031C4.11531 8.875 3.94531 8.705 3.94531 8.5C3.94531 8.295 4.11531 8.125 4.32031 8.125H6.32031C6.52531 8.125 6.69531 8.295 6.69531 8.5C6.69531 8.705 6.52531 8.875 6.32031 8.875ZM7.32031 6.875H4.32031C4.11531 6.875 3.94531 6.705 3.94531 6.5C3.94531 6.295 4.11531 6.125 4.32031 6.125H7.32031C7.52531 6.125 7.69531 6.295 7.69531 6.5C7.69531 6.705 7.52531 6.875 7.32031 6.875Z" fill="currentColor"/>
</svg>
