<svg width="50" height="50" viewBox="0 0 50 50" fill="none" xmlns="http://www.w3.org/2000/svg">
<g id="vuesax/bold/document-upload">
<g id="document-upload">
<path id="Vector" d="M42.7085 21.229H36.6877C31.7502 21.229 27.7293 17.2082 27.7293 12.2707V6.24984C27.7293 5.104 26.7918 4.1665 25.646 4.1665H16.8127C10.396 4.1665 5.2085 8.33317 5.2085 15.7707V34.229C5.2085 41.6665 10.396 45.8332 16.8127 45.8332H33.1877C39.6043 45.8332 44.7918 41.6665 44.7918 34.229V23.3123C44.7918 22.1665 43.8543 21.229 42.7085 21.229ZM24.021 28.1873C23.7085 28.4998 23.3127 28.6457 22.9168 28.6457C22.521 28.6457 22.1252 28.4998 21.8127 28.1873L20.3127 26.6873V35.4165C20.3127 36.2707 19.6043 36.979 18.7502 36.979C17.896 36.979 17.1877 36.2707 17.1877 35.4165V26.6873L15.6877 28.1873C15.0835 28.7915 14.0835 28.7915 13.4793 28.1873C12.8752 27.5832 12.8752 26.5832 13.4793 25.979L17.646 21.8123C17.7918 21.6873 17.9377 21.5832 18.1043 21.4998C18.146 21.479 18.2085 21.4582 18.2502 21.4373C18.3752 21.3957 18.5002 21.3748 18.646 21.354C18.7085 21.354 18.7502 21.354 18.8127 21.354C18.9793 21.354 19.146 21.3957 19.3127 21.4582C19.3335 21.4582 19.3335 21.4582 19.3543 21.4582C19.521 21.5207 19.6877 21.6457 19.8127 21.7707C19.8335 21.7915 19.8543 21.7915 19.8543 21.8123L24.021 25.979C24.6252 26.5832 24.6252 27.5832 24.021 28.1873Z" fill="#A7A7A7"/>
<path id="Vector_2" d="M36.3127 18.354C38.2918 18.3748 41.0418 18.3748 43.396 18.3748C44.5835 18.3748 45.2085 16.9789 44.3752 16.1456C41.3752 13.1248 36.0002 7.68728 32.9168 4.60395C32.0627 3.74978 30.5835 4.33312 30.5835 5.52062V12.7914C30.5835 15.8331 33.1668 18.354 36.3127 18.354Z" fill="#A7A7A7"/>
</g>
</g>
</svg>
