<svg width="20" height="20" viewBox="0 0 20 20" fill="none" xmlns="http://www.w3.org/2000/svg">
<g id="vuesax/bold/import">
<g id="import">
<path id="Vector" d="M17.8248 11.8318V11.8333V14C17.8248 15.2279 17.4432 16.1745 16.8046 16.8131C16.166 17.4517 15.2194 17.8333 13.9915 17.8333H5.99984C4.77196 17.8333 3.82553 17.4518 3.18697 16.8123C2.54835 16.1728 2.1665 15.2241 2.1665 13.9917V11.8333C2.1665 10.6054 2.5481 9.65885 3.18672 9.02022C3.82535 8.38159 4.77195 8 5.99984 8H8.87484V9.99289L8.00339 9.12145C7.56646 8.68452 6.84988 8.68452 6.41295 9.12145C5.97602 9.55838 5.97602 10.275 6.41295 10.7119L9.20462 13.5036C9.64155 13.9405 10.3581 13.9405 10.7951 13.5036L13.5867 10.7119C14.0237 10.275 14.0237 9.55838 13.5867 9.12145C13.363 8.89774 13.0753 8.79167 12.7915 8.79167C12.5077 8.79167 12.22 8.89774 11.9963 9.12145L11.1248 9.99289V8H13.9998C15.2278 8 16.1742 8.38164 16.8117 9.01997C17.449 9.6582 17.8287 10.6043 17.8248 11.8318Z" fill="#0CA6ED" stroke="#0CA6ED"/>
<path id="Vector_2" d="M10 2.16675C10.0301 2.16675 10.0614 2.17903 10.0871 2.20468C10.1127 2.23032 10.125 2.2616 10.125 2.29175V7.00008H9.875V2.29175C9.875 2.2616 9.88728 2.23032 9.91293 2.20468C9.93857 2.17903 9.96985 2.16675 10 2.16675Z" fill="#0CA6ED" stroke="#0CA6ED"/>
</g>
</g>
</svg>
