<svg width="20" height="20" viewBox="0 0 20 20" fill="none" xmlns="http://www.w3.org/2000/svg">
<path d="M16.0998 8.33412H3.90814C2.67481 8.33412 1.6748 7.32579 1.6748 6.10079V3.90912C1.6748 2.67579 2.68314 1.67578 3.90814 1.67578H16.0998C17.3331 1.67578 18.3331 2.68412 18.3331 3.90912V6.10079C18.3331 7.32579 17.3248 8.33412 16.0998 8.33412Z" stroke="#A7A7A7" stroke-width="1.5" stroke-linecap="round" stroke-linejoin="round"/>
<path d="M16.0998 18.3341H3.90814C2.67481 18.3341 1.6748 17.3258 1.6748 16.1008V13.9091C1.6748 12.6758 2.68314 11.6758 3.90814 11.6758H16.0998C17.3331 11.6758 18.3331 12.6841 18.3331 13.9091V16.1008C18.3331 17.3258 17.3248 18.3341 16.0998 18.3341Z" stroke="#A7A7A7" stroke-width="1.5" stroke-linecap="round" stroke-linejoin="round"/>
<path d="M5 4.16797V5.83464" stroke="#A7A7A7" stroke-width="1.5" stroke-linecap="round" stroke-linejoin="round"/>
<path d="M8.33301 4.16797V5.83464" stroke="#A7A7A7" stroke-width="1.5" stroke-linecap="round" stroke-linejoin="round"/>
<path d="M5 14.168V15.8346" stroke="#A7A7A7" stroke-width="1.5" stroke-linecap="round" stroke-linejoin="round"/>
<path d="M8.33301 14.168V15.8346" stroke="#A7A7A7" stroke-width="1.5" stroke-linecap="round" stroke-linejoin="round"/>
<path d="M11.667 5H15.0003" stroke="#A7A7A7" stroke-width="1.5" stroke-linecap="round" stroke-linejoin="round"/>
<path d="M11.667 15H15.0003" stroke="#A7A7A7" stroke-width="1.5" stroke-linecap="round" stroke-linejoin="round"/>
</svg>
