<svg width="21" height="20" viewBox="0 0 21 20" fill="none" xmlns="http://www.w3.org/2000/svg" stroke="currentColor">
<g id="vuesax/linear/emoji-normal">
<g id="emoji-normal">
<path id="Vector" d="M8.31966 18.3327H13.3197C17.4863 18.3327 19.153 16.666 19.153 12.4993V7.49935C19.153 3.33268 17.4863 1.66602 13.3197 1.66602H8.31966C4.15299 1.66602 2.48633 3.33268 2.48633 7.49935V12.4993C2.48633 16.666 4.15299 18.3327 8.31966 18.3327Z"  stroke-width="1.5" stroke-linecap="round" stroke-linejoin="round"/>
<path id="Vector_2" d="M6.6543 6.875C7.48763 7.70833 8.84596 7.70833 9.68763 6.875"  stroke-width="1.5" stroke-miterlimit="10" stroke-linecap="round" stroke-linejoin="round"/>
<path id="Vector_3" d="M11.9531 6.875C12.7865 7.70833 14.1448 7.70833 14.9865 6.875"  stroke-width="1.5" stroke-miterlimit="10" stroke-linecap="round" stroke-linejoin="round"/>
<path id="Vector_4" d="M7.82031 10.834H13.8203C14.237 10.834 14.5703 11.1673 14.5703 11.584C14.5703 13.659 12.8953 15.334 10.8203 15.334C8.74531 15.334 7.07031 13.659 7.07031 11.584C7.07031 11.1673 7.40365 10.834 7.82031 10.834Z"  stroke-width="1.5" stroke-miterlimit="10" stroke-linecap="round" stroke-linejoin="round"/>
</g>
</g>
</svg>
