<svg width="21" height="20" viewBox="0 0 21 20" fill="none" xmlns="http://www.w3.org/2000/svg">
<g id="vuesax/linear/emoji-happy">
<g id="emoji-happy">
<path id="Vector" d="M7.82259 18.3333H12.8226C16.9893 18.3333 18.6559 16.6666 18.6559 12.5V7.49996C18.6559 3.33329 16.9893 1.66663 12.8226 1.66663H7.82259C3.65592 1.66663 1.98926 3.33329 1.98926 7.49996V12.5C1.98926 16.6666 3.65592 18.3333 7.82259 18.3333Z" stroke="#717171" stroke-width="1.5" stroke-linecap="round" stroke-linejoin="round"/>
<path id="Vector_2" d="M13.2393 8.125C13.9296 8.125 14.4893 7.56536 14.4893 6.875C14.4893 6.18464 13.9296 5.625 13.2393 5.625C12.5489 5.625 11.9893 6.18464 11.9893 6.875C11.9893 7.56536 12.5489 8.125 13.2393 8.125Z" stroke="#717171" stroke-width="1.5" stroke-miterlimit="10" stroke-linecap="round" stroke-linejoin="round"/>
<path id="Vector_3" d="M7.40527 8.125C8.09563 8.125 8.65527 7.56536 8.65527 6.875C8.65527 6.18464 8.09563 5.625 7.40527 5.625C6.71492 5.625 6.15527 6.18464 6.15527 6.875C6.15527 7.56536 6.71492 8.125 7.40527 8.125Z" stroke="#717171" stroke-width="1.5" stroke-miterlimit="10" stroke-linecap="round" stroke-linejoin="round"/>
<path id="Vector_4" d="M7.32227 11.0834H13.3223C13.7389 11.0834 14.0723 11.4167 14.0723 11.8334C14.0723 13.9084 12.3973 15.5834 10.3223 15.5834C8.24727 15.5834 6.57227 13.9084 6.57227 11.8334C6.57227 11.4167 6.9056 11.0834 7.32227 11.0834Z" stroke="#717171" stroke-width="1.5" stroke-miterlimit="10" stroke-linecap="round" stroke-linejoin="round"/>
</g>
</g>
</svg>
