<svg width="50" height="51" viewBox="0 0 50 51" fill="none" xmlns="http://www.w3.org/2000/svg">
<path fill-rule="evenodd" clip-rule="evenodd" d="M33.7442 4.66602H16.2772C8.69008 4.66602 4.16699 9.18685 4.16699 16.7702V34.2077C4.16699 41.8119 8.69008 46.3327 16.2772 46.3327H33.7234C41.3105 46.3327 45.8336 41.8119 45.8336 34.2285V16.7702C45.8544 9.18685 41.3314 4.66602 33.7442 4.66602ZM37.5635 13.0623C36.9533 12.4521 35.964 12.4521 35.3538 13.0623L12.3849 36.0312C11.7747 36.6414 11.7747 37.6307 12.3849 38.2409C12.9951 38.8511 13.9844 38.8511 14.5946 38.2409L37.5635 15.272C38.1737 14.6618 38.1737 13.6725 37.5635 13.0623ZM10.417 16.6449C10.417 15.782 11.1165 15.0824 11.9795 15.0824H15.1045V11.9577C15.1045 11.0947 15.804 10.3952 16.667 10.3952C17.5299 10.3952 18.2295 11.0947 18.2295 11.9577V15.0824H21.3545C22.2174 15.0824 22.917 15.782 22.917 16.6449C22.917 17.5079 22.2174 18.2074 21.3545 18.2074H18.2295V21.3327C18.2295 22.1956 17.5299 22.8952 16.667 22.8952C15.804 22.8952 15.1045 22.1956 15.1045 21.3327V18.2074H11.9795C11.1165 18.2074 10.417 17.5079 10.417 16.6449ZM27.0837 33.3116C27.0837 32.4487 27.7832 31.7491 28.6462 31.7491H38.0212C38.8841 31.7491 39.5837 32.4487 39.5837 33.3116C39.5837 34.1746 38.8841 34.8741 38.0212 34.8741H28.6462C27.7832 34.8741 27.0837 34.1746 27.0837 33.3116Z" fill="currentColor"/>
</svg>
