<svg width="21" height="20" viewBox="0 0 21 20" fill="none" xmlns="http://www.w3.org/2000/svg">
<g id="vuesax/linear/hierarchy-square-3">
<g id="hierarchy-square-3">
<path id="Vector" d="M7.32227 11.5V8" stroke="#717171" stroke-width="1.5" stroke-linecap="round" stroke-linejoin="round"/>
<path id="Vector_2" d="M7.44728 15C8.34474 15 9.07229 14.2724 9.07229 13.375C9.07229 12.4775 8.34474 11.75 7.44728 11.75C6.54981 11.75 5.82227 12.4775 5.82227 13.375C5.82227 14.2724 6.54981 15 7.44728 15Z" stroke="#717171" stroke-width="1.5" stroke-linecap="round" stroke-linejoin="round"/>
<path id="Vector_3" d="M7.32226 8C8.15068 8 8.82225 7.32842 8.82225 6.49999C8.82225 5.67156 8.15068 5 7.32226 5C6.49383 5 5.82227 5.67156 5.82227 6.49999C5.82227 7.32842 6.49383 8 7.32226 8Z" stroke="#717171" stroke-width="1.5" stroke-linecap="round" stroke-linejoin="round"/>
<path id="Vector_4" d="M14.3223 8C15.1507 8 15.8222 7.32842 15.8222 6.49999C15.8222 5.67156 15.1507 5 14.3223 5C13.4938 5 12.8223 5.67156 12.8223 6.49999C12.8223 7.32842 13.4938 8 14.3223 8Z" stroke="#717171" stroke-width="1.5" stroke-linecap="round" stroke-linejoin="round"/>
<path id="Vector_5" d="M7.38867 11.4999C7.61367 10.6249 8.41366 9.97496 9.35533 9.9833L11.072 9.99161C12.3803 9.99995 13.497 9.15828 13.9053 7.98328" stroke="#717171" stroke-width="1.5" stroke-linecap="round" stroke-linejoin="round"/>
<path id="Vector_6" d="M8.32259 1.66663H13.3226C17.4893 1.66663 19.1559 3.33329 19.1559 7.49996V12.5C19.1559 16.6666 17.4893 18.3333 13.3226 18.3333H8.32259C4.15592 18.3333 2.48926 16.6666 2.48926 12.5V7.49996C2.48926 3.33329 4.15592 1.66663 8.32259 1.66663Z" stroke="#717171" stroke-width="1.5" stroke-linecap="round" stroke-linejoin="round"/>
</g>
</g>
</svg>
