<svg width="20" height="21" viewBox="0 0 20 21" fill="none" xmlns="http://www.w3.org/2000/svg">
<path d="M13.492 2.06641H6.50866C3.47533 2.06641 1.66699 3.87474 1.66699 6.90807V13.8831C1.66699 16.9247 3.47533 18.7331 6.50866 18.7331H13.4837C16.517 18.7331 18.3253 16.9247 18.3253 13.8914V6.90807C18.3337 3.87474 16.5253 2.06641 13.492 2.06641ZM6.81699 14.3747C6.80033 14.3747 6.77533 14.3747 6.75866 14.3747C5.95033 14.2997 5.19199 13.9247 4.62533 13.3247C3.29199 11.9247 3.29199 9.64974 4.62533 8.24974L6.45033 6.33307C7.10033 5.64974 7.97533 5.26641 8.90866 5.26641C9.84199 5.26641 10.717 5.64141 11.367 6.33307C12.7003 7.73307 12.7003 10.0081 11.367 11.4081L10.4587 12.3664C10.217 12.6164 9.82533 12.6247 9.57533 12.3914C9.32533 12.1497 9.31699 11.7581 9.55033 11.5081L10.4587 10.5497C11.342 9.62474 11.342 8.11641 10.4587 7.19974C9.63366 6.33307 8.18366 6.33307 7.35033 7.19974L5.52533 9.11641C4.64199 10.0414 4.64199 11.5497 5.52533 12.4664C5.88366 12.8497 6.36699 13.0831 6.87533 13.1331C7.21699 13.1664 7.46699 13.4747 7.43366 13.8164C7.40866 14.1331 7.13366 14.3747 6.81699 14.3747ZM15.3753 12.5581L13.5503 14.4747C12.9003 15.1581 12.0253 15.5414 11.092 15.5414C10.1587 15.5414 9.28366 15.1664 8.63366 14.4747C7.30032 13.0747 7.30032 10.7997 8.63366 9.39974L9.54199 8.44141C9.78366 8.19141 10.1753 8.18307 10.4253 8.41641C10.6753 8.65807 10.6837 9.04974 10.4503 9.29974L9.54199 10.2581C8.65866 11.1831 8.65866 12.6914 9.54199 13.6081C10.367 14.4747 11.817 14.4831 12.6503 13.6081L14.4753 11.6914C15.3587 10.7664 15.3587 9.25807 14.4753 8.34141C14.117 7.95807 13.6337 7.72474 13.1253 7.67474C12.7837 7.64141 12.5337 7.33307 12.567 6.99141C12.6003 6.64974 12.9003 6.39141 13.2503 6.43307C14.0587 6.51641 14.817 6.88307 15.3837 7.48307C16.7087 8.87474 16.7087 11.1581 15.3753 12.5581Z" fill="#A7A7A7"/>
</svg>
