<svg width="44" height="35" viewBox="0 0 44 35" fill="none" xmlns="http://www.w3.org/2000/svg">
<g id="Frame" clip-path="url(#clip0_106_7311)">
<path id="Vector" d="M11 4.53578C11 2.15225 12.9731 0.214355 15.4 0.214355H39.6C42.0269 0.214355 44 2.15225 44 4.53578V23.9822C44 26.3658 42.0269 28.3036 39.6 28.3036H23.155C22.3437 26.5818 21.0994 25.0963 19.5525 23.9822H26.4V21.8215C26.4 20.6264 27.3831 19.6608 28.6 19.6608H33C34.2169 19.6608 35.2 20.6264 35.2 21.8215V23.9822H39.6V4.53578H15.4V7.85113C14.1075 7.11514 12.6019 6.6965 11 6.6965V4.53578ZM11 8.85721C11.8667 8.85721 12.725 9.02488 13.5257 9.35064C14.3265 9.6764 15.054 10.1539 15.6669 10.7558C16.2798 11.3577 16.7659 12.0723 17.0976 12.8587C17.4293 13.6452 17.6 14.4881 17.6 15.3394C17.6 16.1906 17.4293 17.0335 17.0976 17.82C16.7659 18.6064 16.2798 19.321 15.6669 19.9229C15.054 20.5248 14.3265 21.0023 13.5257 21.3281C12.725 21.6538 11.8667 21.8215 11 21.8215C10.1333 21.8215 9.27504 21.6538 8.47429 21.3281C7.67354 21.0023 6.94596 20.5248 6.3331 19.9229C5.72023 19.321 5.23408 18.6064 4.9024 17.82C4.57071 17.0335 4.4 16.1906 4.4 15.3394C4.4 14.4881 4.57071 13.6452 4.9024 12.8587C5.23408 12.0723 5.72023 11.3577 6.3331 10.7558C6.94596 10.1539 7.67354 9.6764 8.47429 9.35064C9.27504 9.02488 10.1333 8.85721 11 8.85721ZM9.16438 23.9822H12.8288C17.8956 23.9822 22 28.0133 22 32.9829C22 33.9755 21.1819 34.7858 20.1644 34.7858H1.83563C0.818125 34.7858 0 33.9823 0 32.9829C0 28.0133 4.10438 23.9822 9.16438 23.9822Z" fill="#17A2B8"/>
</g>
<defs>
<clipPath id="clip0_106_7311">
<rect width="44" height="34.5714" fill="white" transform="translate(0 0.214355)"/>
</clipPath>
</defs>
</svg>
