<svg width="21" height="20" viewBox="0 0 21 20" fill="none" xmlns="http://www.w3.org/2000/svg">
<path d="M4.84036 11.2565C3.93203 11.1982 2.9987 11.5315 2.30703 12.2232C1.00703 13.5232 1.00703 15.6315 2.30703 16.9399C2.7487 17.3815 3.29036 17.6732 3.86536 17.8149C4.18203 17.8982 4.51536 17.9232 4.8487 17.9065C5.64036 17.8732 6.41536 17.5565 7.0237 16.9482C7.88203 16.0899 8.1737 14.8815 7.8987 13.7899C7.76537 13.2149 7.46536 12.6732 7.0237 12.2315C6.4237 11.6232 5.64036 11.2982 4.84036 11.2565ZM6.53203 14.5649C6.53203 14.7399 6.46536 14.8899 6.3487 15.0065C6.23203 15.1232 6.08203 15.1899 5.90703 15.1899H5.29036V15.8399C5.29036 16.0149 5.2237 16.1649 5.10703 16.2815C4.99037 16.3982 4.84036 16.4649 4.66536 16.4649C4.3237 16.4649 4.04036 16.1815 4.04036 15.8399V15.1899H3.41536C3.0737 15.1899 2.79036 14.9065 2.79036 14.5649C2.79036 14.2232 3.0737 13.9399 3.41536 13.9399H4.04036V13.3482C4.04036 13.0065 4.3237 12.7232 4.66536 12.7232C5.00703 12.7232 5.29036 13.0065 5.29036 13.3482V13.9399H5.90703C6.25703 13.9399 6.53203 14.2232 6.53203 14.5649Z" fill="currentColor"/>
<path d="M14.875 2.02344H6.95833C4.58333 2.02344 3 3.60677 3 5.98177V9.69844C3 9.9901 3.3 10.1984 3.58333 10.1234C3.93333 10.0401 4.29167 9.99844 4.66667 9.99844C7.05 9.99844 9.01667 11.9318 9.23333 14.2734C9.25 14.5068 9.44167 14.6901 9.66667 14.6901H10.125L13.65 17.0401C14.1667 17.3901 14.875 17.0068 14.875 16.3734V14.6901C16.0583 14.6901 17.05 14.2901 17.7417 13.6068C18.4333 12.9068 18.8333 11.9151 18.8333 10.7318V5.98177C18.8333 3.60677 17.25 2.02344 14.875 2.02344ZM13.6917 9.00677H8.14167C7.81667 9.00677 7.55 8.7401 7.55 8.4151C7.55 8.08177 7.81667 7.8151 8.14167 7.8151H13.6917C14.0167 7.8151 14.2833 8.08177 14.2833 8.4151C14.2833 8.7401 14.0167 9.00677 13.6917 9.00677Z" fill="currentColor"/>
</svg>
