<svg width="12" height="12" viewBox="0 0 12 12" fill="none" xmlns="http://www.w3.org/2000/svg">
<path d="M8.04103 1.82031H3.60686C2.2766 1.82031 1.38977 2.70715 1.38977 4.0374V6.6979C1.38977 8.02815 2.2766 8.91499 3.60686 8.91499H5.38052L7.35373 10.2275C7.64639 10.4226 8.04103 10.2142 8.04103 9.85947V8.91499C9.37128 8.91499 10.2581 8.02815 10.2581 6.6979V4.0374C10.2581 2.70715 9.37128 1.82031 8.04103 1.82031ZM7.3759 5.73125H4.27198C4.09018 5.73125 3.93942 5.58049 3.93942 5.39869C3.93942 5.21689 4.09018 5.06613 4.27198 5.06613H7.3759C7.5577 5.06613 7.70846 5.21689 7.70846 5.39869C7.70846 5.58049 7.5577 5.73125 7.3759 5.73125Z" fill="white"/>
</svg>
