<svg width="20" height="20" viewBox="0 0 20 20" fill="currentColor" xmlns="http://www.w3.org/2000/svg">
<g id="vuesax/bold/minus-square">
<g id="minus-square">
<path id="Vector" d="M13.4917 1.66602H6.50835C3.47502 1.66602 1.66669 3.47435 1.66669 6.50768V13.4827C1.66669 16.5244 3.47502 18.3327 6.50835 18.3327H13.4834C16.5167 18.3327 18.325 16.5244 18.325 13.491V6.50768C18.3334 3.47435 16.525 1.66602 13.4917 1.66602ZM13.3334 10.6243H6.66669C6.32502 10.6243 6.04169 10.341 6.04169 9.99935C6.04169 9.65768 6.32502 9.37435 6.66669 9.37435H13.3334C13.675 9.37435 13.9584 9.65768 13.9584 9.99935C13.9584 10.341 13.675 10.6243 13.3334 10.6243Z"/>
</g>
</g>
</svg>
