<svg width="25" height="24" viewBox="0 0 25 24" fill="none" xmlns="http://www.w3.org/2000/svg">
<path d="M23.25 9L23.25 15C23.25 20.43 20.93 22.75 15.5 22.75L9.5 22.75C4.07 22.75 1.75 20.43 1.75 15L1.75 9C1.75 3.57 4.07 1.25 9.5 1.25L15.5 1.25C20.93 1.25 23.25 3.57 23.25 9ZM3.25 15C3.25 19.61 4.89 21.25 9.5 21.25L15.5 21.25C20.11 21.25 21.75 19.61 21.75 15L21.75 9C21.75 4.39 20.11 2.75 15.5 2.75L9.5 2.75C4.89 2.75 3.25 4.39 3.25 9L3.25 15Z" fill="currentColor"/>
<path d="M13.5 12C13.5 12.56 13.05 13 12.5 13C11.95 13 11.5 12.55 11.5 12C11.5 11.45 11.95 11 12.5 11C13.05 11 13.5 11.44 13.5 12Z" fill="currentColor"/>
<path d="M13.5 8C13.5 8.56 13.05 9 12.5 9C11.95 9 11.5 8.55 11.5 8C11.5 7.45 11.95 7 12.5 7C13.05 7 13.5 7.44 13.5 8Z" fill="currentColor"/>
<path d="M13.5 16C13.5 16.56 13.05 17 12.5 17C11.95 17 11.5 16.55 11.5 16C11.5 15.45 11.95 15 12.5 15C13.05 15 13.5 15.44 13.5 16Z" fill="currentColor"/>
</svg>
