<svg width="101" height="100" viewBox="0 0 101 100" fill="none" xmlns="http://www.w3.org/2000/svg">
<g clip-path="url(#clip0_2400_187612)">
<path d="M90.4748 18.3125H12.4679C11.4155 18.3132 10.4064 18.7315 9.66219 19.4757C8.91803 20.2198 8.49967 21.2289 8.49902 22.2814V93.8535C8.49967 94.9059 8.91803 95.915 9.66219 96.6592C10.4064 97.4033 11.4155 97.8217 12.4679 97.8223H90.4748C91.5273 97.8218 92.5365 97.4035 93.2808 96.6593C94.025 95.9151 94.4435 94.906 94.4441 93.8535V22.2814C94.4435 21.2289 94.025 20.2197 93.2808 19.4755C92.5365 18.7313 91.5273 18.313 90.4748 18.3125Z" fill="#C6C6C6"/>
<path d="M85.3402 72.9488H17.6046C15.4128 72.9488 13.6357 71.1718 13.6357 68.98V5.74229C13.6357 3.55049 15.4128 1.77344 17.6046 1.77344H85.3402C87.5321 1.77344 89.3091 3.55049 89.3091 5.74229V68.98C89.3091 71.1718 87.5321 72.9488 85.3402 72.9488Z" fill="#F9F9F9"/>
<path d="M14.8923 70.2361V6.99885C14.8923 4.80704 16.6693 3.02999 18.8612 3.02999H86.5968C87.371 3.02999 88.0907 3.25499 88.7009 3.63819C87.9993 2.51934 86.7583 1.77344 85.3403 1.77344H17.6046C15.4128 1.77344 13.6357 3.55049 13.6357 5.74229V68.98C13.6357 70.3984 14.3816 71.639 15.5005 72.3411C15.1173 71.7304 14.8923 71.0107 14.8923 70.2366V70.2361Z" fill="#E9E9E9"/>
<path d="M77.0063 15.1367H25.9395V18.047H77.0063V15.1367ZM77.0063 26.249H25.9395V29.1593H77.0063V26.249ZM77.0063 37.3638H25.9395V40.274H77.0063V37.3638ZM77.0063 48.4761H25.9395V51.3867H77.0063V48.4761Z" fill="white"/>
<path d="M32.0244 39.082L44.8568 51.9148H32.0244V39.082Z" fill="url(#paint0_linear_2400_187612)"/>
<path d="M94.4443 52.9744V23.4486L89.3086 18.3125V52.974H94.4443V52.9744Z" fill="#C6C6C6"/>
<path d="M100.46 55.6453L94.927 94.8141C94.6504 96.7723 92.9745 98.2276 90.9971 98.2276H11.9471C9.96963 98.2276 8.29381 96.7723 8.01717 94.8141L0.539715 41.8875C0.20242 39.4981 2.05652 37.3633 4.46963 37.3633H28.8819C30.8594 37.3633 32.5352 38.8186 32.8118 40.7764L33.7918 47.7075C34.0684 49.6657 35.7442 51.1211 37.7217 51.1211H96.5311C98.9434 51.1211 100.798 53.2559 100.461 55.6453H100.46Z" fill="url(#paint1_linear_2400_187612)"/>
<path d="M80.8555 80.7559H22.0895C21.7674 80.7557 21.4564 80.6382 21.2147 80.4252C20.9731 80.2122 20.8174 79.9184 20.7768 79.5989L20.0415 73.7776C20.0182 73.5914 20.0347 73.4023 20.09 73.2229C20.1452 73.0436 20.238 72.878 20.3622 72.7373C20.4863 72.5965 20.639 72.4837 20.81 72.4065C20.981 72.3292 21.1666 72.2892 21.3542 72.2891H81.5907C81.7784 72.2892 81.9639 72.3292 82.135 72.4065C82.306 72.4837 82.4587 72.5965 82.5828 72.7373C82.7069 72.878 82.7997 73.0436 82.855 73.2229C82.9103 73.4023 82.9268 73.5914 82.9034 73.7776L82.1682 79.5989C82.1276 79.9184 81.9719 80.2122 81.7302 80.4252C81.4886 80.6382 81.1776 80.7557 80.8555 80.7559Z" fill="#D5D5D5"/>
</g>
<defs>
<linearGradient id="paint0_linear_2400_187612" x1="40.5027" y1="53.9738" x2="24.9916" y2="38.4632" gradientUnits="userSpaceOnUse">
<stop stop-color="#C2CECE" stop-opacity="0"/>
<stop offset="0.179" stop-color="#AFBCBC" stop-opacity="0.179"/>
<stop offset="1" stop-color="#5B6A6A"/>
</linearGradient>
<linearGradient id="paint1_linear_2400_187612" x1="50.5" y1="37.3633" x2="50.5" y2="98.2276" gradientUnits="userSpaceOnUse">
<stop stop-color="#EEF0F4"/>
<stop offset="0.927" stop-color="#E4E4E4"/>
</linearGradient>
<clipPath id="clip0_2400_187612">
<rect width="100" height="100" fill="white" transform="translate(0.5)"/>
</clipPath>
</defs>
</svg>
