<svg width="25" height="24" viewBox="0 0 25 24" fill="none" xmlns="http://www.w3.org/2000/svg">
<path d="M22.1602 10.4385L21.1802 14.6185C20.3402 18.2285 18.6802 19.6885 15.5602 19.3885C15.0602 19.3485 14.5202 19.2585 13.9402 19.1185L12.2602 18.7185C8.09018 17.7285 6.80018 15.6685 7.78018 11.4885L8.76018 7.29854C8.96018 6.44854 9.20018 5.70854 9.50018 5.09854C10.6702 2.67854 12.6602 2.02854 16.0002 2.81854L17.6702 3.20854C21.8602 4.18854 23.1402 6.25854 22.1602 10.4385Z" fill="#FFCB00"/>
<path d="M15.5584 19.3916C14.9384 19.8116 14.1584 20.1616 13.2084 20.4716L11.6284 20.9916C7.65839 22.2716 5.56839 21.2016 4.27839 17.2316L2.99839 13.2816C1.71839 9.31156 2.77839 7.21156 6.74839 5.93156L8.32839 5.41156C8.73839 5.28156 9.12839 5.17156 9.49839 5.10156C9.19839 5.71156 8.95839 6.45156 8.75839 7.30156L7.77839 11.4916C6.79839 15.6716 8.08839 17.7316 12.2584 18.7216L13.9384 19.1216C14.5184 19.2616 15.0584 19.3516 15.5584 19.3916Z" fill="#FCAF17"/>
<path d="M17.9894 10.5117C17.9294 10.5117 17.8694 10.5017 17.7994 10.4917L12.9494 9.26173C12.5494 9.16173 12.3094 8.75173 12.4094 8.35173C12.5094 7.95173 12.9194 7.71173 13.3194 7.81173L18.1694 9.04173C18.5694 9.14173 18.8094 9.55173 18.7094 9.95173C18.6294 10.2817 18.3194 10.5117 17.9894 10.5117Z" fill="white"/>
<path d="M15.0611 13.8889C15.0011 13.8889 14.9411 13.8789 14.8711 13.8689L11.9611 13.1289C11.5611 13.0289 11.3211 12.6189 11.4211 12.2189C11.5211 11.8189 11.9311 11.5789 12.3311 11.6789L15.2411 12.4189C15.6411 12.5189 15.8811 12.9289 15.7811 13.3289C15.7011 13.6689 15.4011 13.8889 15.0611 13.8889Z" fill="white"/>
</svg>
