<svg width="52" height="52" viewBox="0 0 52 52" fill="currentColor" xmlns="http://www.w3.org/2000/svg">
<path d="M18.9585 7.58203V4.33203C18.9585 3.4437 18.2218 2.70703 17.3335 2.70703C16.4452 2.70703 15.7085 3.4437 15.7085 4.33203V7.71203C16.2502 7.64703 16.7485 7.58203 17.3335 7.58203H18.9585Z" />
<path d="M36.2915 7.71203V4.33203C36.2915 3.4437 35.5548 2.70703 34.6665 2.70703C33.7782 2.70703 33.0415 3.4437 33.0415 4.33203V7.58203H34.6665C35.2515 7.58203 35.7498 7.64703 36.2915 7.71203Z" />
<path d="M36.2917 7.71203V10.832C36.2917 11.7204 35.555 12.457 34.6667 12.457C33.7783 12.457 33.0417 11.7204 33.0417 10.832V7.58203H18.9583V10.832C18.9583 11.7204 18.2217 12.457 17.3333 12.457C16.445 12.457 15.7083 11.7204 15.7083 10.832V7.71203C9.31667 8.29703 6.5 12.4137 6.5 18.4154V36.832C6.5 43.332 9.75 47.6654 17.3333 47.6654H34.6667C42.25 47.6654 45.5 43.332 45.5 36.832V18.4154C45.5 12.4137 42.6833 8.29703 36.2917 7.71203ZM26 36.2904H17.3333C16.445 36.2904 15.7083 35.5537 15.7083 34.6654C15.7083 33.777 16.445 33.0404 17.3333 33.0404H26C26.8883 33.0404 27.625 33.777 27.625 34.6654C27.625 35.5537 26.8883 36.2904 26 36.2904ZM34.6667 25.457H17.3333C16.445 25.457 15.7083 24.7204 15.7083 23.832C15.7083 22.9437 16.445 22.207 17.3333 22.207H34.6667C35.555 22.207 36.2917 22.9437 36.2917 23.832C36.2917 24.7204 35.555 25.457 34.6667 25.457Z" />
</svg>
