<svg width="21" height="20" viewBox="0 0 21 20" fill="none" xmlns="http://www.w3.org/2000/svg">
<path d="M7.41016 4.74297C7.34063 4.74297 7.28516 4.68785 7.28516 4.61797V2.29297C7.28516 2.22309 7.34063 2.16797 7.41016 2.16797C7.47968 2.16797 7.53516 2.22309 7.53516 2.29297V4.60964C7.53516 4.69218 7.4754 4.74297 7.41016 4.74297Z" stroke="#currentColor"/>
<path d="M13.5898 5.24297C13.2398 5.24297 12.9648 4.95964 12.9648 4.61797V2.29297C12.9648 1.94297 13.2482 1.66797 13.5898 1.66797C13.9398 1.66797 14.2148 1.9513 14.2148 2.29297V4.60964C14.2148 4.95964 13.9398 5.24297 13.5898 5.24297Z" fill="currentColor"/>
<path d="M16.807 3.7513C16.257 3.34297 15.4654 3.73464 15.4654 4.4263V4.50964C15.4654 5.48464 14.7654 6.38464 13.7904 6.48464C12.6654 6.6013 11.7154 5.71797 11.7154 4.61797V3.7513C11.7154 3.29297 11.3404 2.91797 10.882 2.91797H10.1154C9.65703 2.91797 9.28203 3.29297 9.28203 3.7513V4.61797C9.28203 5.2763 8.94036 5.85964 8.4237 6.18464C8.3487 6.23464 8.26536 6.2763 8.18203 6.31797C8.10703 6.35964 8.0237 6.39297 7.93203 6.41797C7.83203 6.4513 7.7237 6.4763 7.60703 6.48464C7.4737 6.5013 7.34036 6.5013 7.20703 6.48464C7.09036 6.4763 6.98203 6.4513 6.88203 6.41797C6.7987 6.39297 6.71536 6.35964 6.63203 6.31797C6.5487 6.2763 6.46536 6.23464 6.39036 6.18464C5.86536 5.81797 5.53203 5.18464 5.53203 4.50964V4.4263C5.53203 3.78464 4.8487 3.4013 4.30703 3.6763C4.2987 3.68464 4.29036 3.68464 4.28203 3.69297C4.2487 3.70964 4.2237 3.7263 4.19036 3.7513C4.16536 3.7763 4.13203 3.79297 4.10703 3.81797C3.8737 4.0013 3.66536 4.20964 3.49036 4.43464C3.3987 4.53464 3.3237 4.64297 3.25703 4.7513C3.2487 4.75964 3.24036 4.76797 3.23203 4.78464C3.15703 4.89297 3.09036 5.01797 3.03203 5.13464C3.01536 5.1513 3.00703 5.15964 3.00703 5.1763C2.95703 5.2763 2.90703 5.3763 2.8737 5.48464C2.8487 5.5263 2.84036 5.55964 2.8237 5.6013C2.7737 5.7263 2.74036 5.8513 2.70703 5.9763C2.6737 6.09297 2.6487 6.21797 2.63203 6.34297C2.61536 6.43464 2.60703 6.5263 2.5987 6.6263C2.59036 6.74297 2.58203 6.85964 2.58203 6.9763V14.2763C2.58203 16.518 4.3987 18.3346 6.64036 18.3346H14.357C16.5987 18.3346 18.4154 16.518 18.4154 14.2763V6.9763C18.4154 5.6513 17.782 4.49297 16.807 3.7513ZM10.4987 13.543H9.09036V15.0013C9.09036 15.343 8.80703 15.6263 8.46536 15.6263C8.11537 15.6263 7.84036 15.343 7.84036 15.0013V13.543H6.33203C5.99036 13.543 5.70703 13.2596 5.70703 12.918C5.70703 12.5763 5.99036 12.293 6.33203 12.293H7.84036V10.8346C7.84036 10.493 8.11537 10.2096 8.46536 10.2096C8.80703 10.2096 9.09036 10.493 9.09036 10.8346V12.293H10.4987C10.8404 12.293 11.1237 12.5763 11.1237 12.918C11.1237 13.2596 10.8404 13.543 10.4987 13.543Z" fill="currentColor"/>
</svg>
