<svg width="21" height="21" viewBox="0 0 21 21" fill="none" xmlns="http://www.w3.org/2000/svg">
<g id="vuesax/bold/edit-2">
<g id="edit-2">
<path id="Vector" d="M17.7 18.332H2.69995C2.6698 18.332 2.63852 18.3197 2.61288 18.2941C2.58724 18.2685 2.57495 18.2372 2.57495 18.207C2.57495 18.1769 2.58724 18.1456 2.61288 18.12C2.63852 18.0943 2.6698 18.082 2.69995 18.082H17.7C17.7301 18.082 17.7614 18.0943 17.787 18.12C17.8127 18.1456 17.825 18.1769 17.825 18.207C17.825 18.2372 17.8127 18.2685 17.787 18.2941C17.7614 18.3197 17.7301 18.332 17.7 18.332Z" fill="white" stroke="white"/>
<path id="Vector_2" d="M15.6964 3.7536L15.6964 3.75361L15.6982 3.75538C16.4764 4.52587 16.7814 5.20375 16.775 5.845L16.7749 5.845V5.85005C16.7749 6.46752 16.47 7.139 15.6982 7.90304L15.6982 7.90302L15.6949 7.9063L14.7638 8.84518C12.7889 8.24831 11.2055 6.66623 10.6066 4.69215L11.5452 3.7536C12.3217 2.97708 13.0112 2.66789 13.6332 2.67191C14.2569 2.67595 14.9384 2.9956 15.6964 3.7536Z" fill="white" stroke="white"/>
<path id="Vector_3" d="M13.0001 10.5644L12.9909 10.5599C12.7466 10.442 12.4975 10.3178 12.2534 10.1731M13.0001 10.5644L13.2083 10.1096C12.9666 9.99297 12.7333 9.8763 12.5083 9.74297C12.3249 9.63464 12.1499 9.51797 11.9749 9.39297M13.0001 10.5644L13.0095 10.5684C13.0113 10.5692 13.0122 10.5699 13.0127 10.5702C13.0132 10.5706 13.0139 10.5712 13.0146 10.5722C13.0164 10.5745 13.0184 10.5782 13.0193 10.5825C13.0193 10.5827 13.0193 10.5829 13.0194 10.5831L8.32971 15.2727L8.32264 15.2798L8.31842 15.2844C8.31697 15.2856 8.31274 15.2891 8.30502 15.2945C8.29125 15.3041 8.27223 15.3155 8.24924 15.327C8.22642 15.3384 8.20329 15.3481 8.18241 15.3553C8.16468 15.3614 8.15231 15.3645 8.146 15.3658L4.9553 15.8145L4.95528 15.8143L4.94273 15.8164C4.86952 15.8286 4.79701 15.8346 4.72493 15.8346C4.39385 15.8346 4.1085 15.7197 3.91146 15.5306C3.6879 15.2986 3.56452 14.9303 3.62795 14.499L3.62837 14.4961L4.07649 11.3178L4.07822 11.311C4.08004 11.3043 4.08268 11.2958 4.08631 11.2855C4.09368 11.2647 4.10374 11.2409 4.1159 11.2166C4.12809 11.1922 4.14071 11.1707 4.15217 11.1537C4.16345 11.1371 4.17011 11.1299 4.17023 11.1298L8.85504 6.44497C8.85581 6.44505 8.85674 6.44519 8.85783 6.44542C8.86947 6.44787 8.88151 6.45608 8.88851 6.47108L8.88834 6.47116L8.89438 6.48324C9.01281 6.72009 9.13564 6.95741 9.27796 7.1976C9.38372 7.37657 9.50878 7.57571 9.62744 7.72751C9.75759 7.92402 9.89949 8.0938 9.98099 8.19131C9.98537 8.19655 9.98958 8.20158 9.99359 8.20639C9.99959 8.21414 10.0066 8.22321 10.0139 8.23282C10.0322 8.2566 10.053 8.28368 10.0678 8.30219C10.0811 8.31884 10.0993 8.34095 10.1198 8.36307C10.1261 8.36984 10.1358 8.38014 10.1485 8.39237C10.4333 8.7332 10.7465 9.03787 11.028 9.27806C11.0629 9.31241 11.0968 9.34395 11.1269 9.3703C11.1439 9.38514 11.1624 9.40078 11.1811 9.41533L11.1823 9.41624C11.1865 9.41952 11.1956 9.42665 11.2083 9.43567M13.0001 10.5644L11.2083 9.43567M12.2534 10.1731L12.5082 9.74305L12.2539 10.1734C12.2537 10.1733 12.2535 10.1732 12.2534 10.1731ZM12.2534 10.1731C12.058 10.0577 11.8738 9.93486 11.6933 9.80622M11.6933 9.80622C11.6966 9.80841 11.7 9.81059 11.7033 9.81275L11.9749 9.39297M11.6933 9.80622C11.5339 9.70204 11.3604 9.56317 11.2083 9.43567M11.6933 9.80622C11.6903 9.80409 11.6873 9.80196 11.6843 9.79984L11.9749 9.39297M11.9749 9.39297L11.2083 9.43567" fill="white" stroke="white"/>
</g>
</g>
</svg>
