<svg width="21" height="21" viewBox="0 0 21 21" fill="none" xmlns="http://www.w3.org/2000/svg">
<g id="vuesax/linear/people">
<g id="people">
<g id="Group">
<path id="Vector" d="M15.8207 6.60762C15.7707 6.59929 15.7124 6.59929 15.6624 6.60762C14.5124 6.56595 13.5957 5.62429 13.5957 4.45762C13.5957 3.26595 14.554 2.30762 15.7457 2.30762C16.9374 2.30762 17.8957 3.27429 17.8957 4.45762C17.8874 5.62429 16.9707 6.56595 15.8207 6.60762Z" stroke="currentColor" stroke-width="1.5" stroke-linecap="round" stroke-linejoin="round"/>
<path id="Vector_2" d="M14.9625 12.6744C16.1042 12.8661 17.3625 12.6661 18.2458 12.0744C19.4208 11.2911 19.4208 10.0078 18.2458 9.22442C17.3542 8.63275 16.0792 8.43275 14.9375 8.63275" stroke="currentColor" stroke-width="1.5" stroke-linecap="round" stroke-linejoin="round"/>
</g>
<g id="Group_2">
<path id="Vector_3" d="M5.7957 6.60762C5.8457 6.59929 5.90404 6.59929 5.95404 6.60762C7.10404 6.56595 8.0207 5.62429 8.0207 4.45762C8.0207 3.26595 7.06237 2.30762 5.8707 2.30762C4.67904 2.30762 3.7207 3.27429 3.7207 4.45762C3.72904 5.62429 4.6457 6.56595 5.7957 6.60762Z" stroke="currentColor" stroke-width="1.5" stroke-linecap="round" stroke-linejoin="round"/>
<path id="Vector_4" d="M6.65384 12.6744C5.51217 12.8661 4.25384 12.6661 3.37051 12.0744C2.19551 11.2911 2.19551 10.0078 3.37051 9.22442C4.26217 8.63275 5.53717 8.43275 6.67884 8.63275" stroke="currentColor" stroke-width="1.5" stroke-linecap="round" stroke-linejoin="round"/>
</g>
<g id="Group_3">
<path id="Vector_5" d="M10.8197 12.8322C10.7697 12.8239 10.7114 12.8239 10.6614 12.8322C9.51139 12.7906 8.59473 11.8489 8.59473 10.6822C8.59473 9.49056 9.55306 8.53223 10.7447 8.53223C11.9364 8.53223 12.8947 9.49889 12.8947 10.6822C12.8864 11.8489 11.9697 12.7989 10.8197 12.8322Z" stroke="currentColor" stroke-width="1.5" stroke-linecap="round" stroke-linejoin="round"/>
<path id="Vector_6" d="M8.39492 15.4574C7.21992 16.2408 7.21992 17.5241 8.39492 18.3074C9.72826 19.1991 11.9116 19.1991 13.2449 18.3074C14.4199 17.5241 14.4199 16.2408 13.2449 15.4574C11.9199 14.5741 9.72826 14.5741 8.39492 15.4574Z" stroke="currentColor" stroke-width="1.5" stroke-linecap="round" stroke-linejoin="round"/>
</g>
</g>
</g>
</svg>
