<svg width="18" height="18" viewBox="0 0 18 18" fill="none" xmlns="http://www.w3.org/2000/svg">
<path d="M8.97786 2.15234C5.06786 2.15234 1.89453 5.32568 1.89453 9.23568C1.89453 13.1457 5.06786 16.319 8.97786 16.319C12.8879 16.319 16.0612 13.1457 16.0612 9.23568C16.0612 5.32568 12.8949 2.15234 8.97786 2.15234ZM11.1029 10.8153L9.0487 11.9982C8.7937 12.1469 8.51036 12.2178 8.23411 12.2178C7.95078 12.2178 7.67453 12.1469 7.41953 11.9982C6.90953 11.7007 6.60495 11.1765 6.60495 10.5815V8.20859C6.60495 7.62068 6.90953 7.08943 7.41953 6.79193C7.92953 6.49443 8.5387 6.49443 9.05578 6.79193L11.1099 7.97484C11.6199 8.27234 11.9245 8.79651 11.9245 9.39151C11.9245 9.98651 11.6199 10.5178 11.1029 10.8153Z" fill="currentColor"/>
</svg>
