<svg width="21" height="20" viewBox="0 0 21 20" fill="none" xmlns="http://www.w3.org/2000/svg">
<path d="M10.5003 18.3327C15.1027 18.3327 18.8337 14.6017 18.8337 9.99935C18.8337 5.39698 15.1027 1.66602 10.5003 1.66602C5.89795 1.66602 2.16699 5.39698 2.16699 9.99935C2.16699 14.6017 5.89795 18.3327 10.5003 18.3327Z" stroke="#0CA6ED" stroke-width="1.5" stroke-linecap="round" stroke-linejoin="round"/>
<path d="M7.1748 12.0919C7.3248 12.3419 7.50813 12.5753 7.71647 12.7836C9.2498 14.317 11.7415 14.317 13.2831 12.7836C13.9081 12.1586 14.2665 11.3669 14.3831 10.5586" stroke="#0CA6ED" stroke-width="1.5" stroke-linecap="round" stroke-linejoin="round"/>
<path d="M6.61621 9.44144C6.73288 8.62478 7.09122 7.84141 7.71622 7.21641C9.24955 5.68307 11.7412 5.68307 13.2829 7.21641C13.4995 7.43307 13.6745 7.66642 13.8245 7.90809" stroke="#0CA6ED" stroke-width="1.5" stroke-linecap="round" stroke-linejoin="round"/>
<path d="M7.0166 14.3168V12.0918H9.24159" stroke="#0CA6ED" stroke-width="1.5" stroke-linecap="round" stroke-linejoin="round"/>
<path d="M13.9828 5.68359V7.90858H11.7578" stroke="#0CA6ED" stroke-width="1.5" stroke-linecap="round" stroke-linejoin="round"/>
</svg>
