<svg width="56" height="56" viewBox="0 0 56 56" fill="none" xmlns="http://www.w3.org/2000/svg">
<rect x="4" y="4" width="48" height="48" rx="24" fill="#0CA6ED"/>
<rect x="4" y="4" width="48" height="48" rx="24" stroke="#9CEEFF" stroke-width="8"/>
<path d="M37.5599 26.7401L36.2099 25.1601C35.9599 24.8601 35.7499 24.3001 35.7499 23.9001V22.2001C35.7499 21.1401 34.8799 20.2701 33.8199 20.2701H32.1199C31.7199 20.2701 31.1499 20.0601 30.8499 19.8101L29.2699 18.4601C28.5799 17.8701 27.4499 17.8701 26.7599 18.4601L25.1599 19.8101C24.8599 20.0601 24.2999 20.2701 23.8999 20.2701H22.1699C21.1099 20.2701 20.2399 21.1401 20.2399 22.2001V23.9001C20.2399 24.2901 20.0399 24.8501 19.7899 25.1501L18.4399 26.7401C17.8599 27.4401 17.8599 28.5601 18.4399 29.2401L19.7899 30.8301C20.0399 31.1201 20.2399 31.6901 20.2399 32.0801V33.7901C20.2399 34.8501 21.1099 35.7201 22.1699 35.7201H23.9099C24.2999 35.7201 24.8699 35.9301 25.1699 36.1801L26.7499 37.5301C27.4399 38.1201 28.5699 38.1201 29.2599 37.5301L30.8399 36.1801C31.1399 35.9301 31.6999 35.7201 32.0999 35.7201H33.7999C34.8599 35.7201 35.7299 34.8501 35.7299 33.7901V32.0901C35.7299 31.6901 35.9399 31.1301 36.1899 30.8301L37.5399 29.2501C38.1499 28.5701 38.1499 27.4401 37.5599 26.7401ZM27.2499 24.1301C27.2499 23.7201 27.5899 23.3801 27.9999 23.3801C28.4099 23.3801 28.7499 23.7201 28.7499 24.1301V28.9601C28.7499 29.3701 28.4099 29.7101 27.9999 29.7101C27.5899 29.7101 27.2499 29.3701 27.2499 28.9601V24.1301ZM27.9999 32.8701C27.4499 32.8701 26.9999 32.4201 26.9999 31.8701C26.9999 31.3201 27.4399 30.8701 27.9999 30.8701C28.5499 30.8701 28.9999 31.3201 28.9999 31.8701C28.9999 32.4201 28.5599 32.8701 27.9999 32.8701Z" fill="white"/>
</svg>
