<svg width="21" height="20" viewBox="0 0 21 20" fill="none" xmlns="http://www.w3.org/2000/svg">
<g id="vuesax/linear/security-user">
<g id="security-user">
<g id="Group">
<path id="Vector" d="M9.56405 1.8583L5.40573 3.41663C4.44739 3.77496 3.66406 4.90829 3.66406 5.93329V12.1249C3.66406 13.1083 4.31407 14.4 5.10574 14.9916L8.68906 17.6666C9.86406 18.55 11.7974 18.55 12.9724 17.6666L16.5557 14.9916C17.3474 14.4 17.9974 13.1083 17.9974 12.1249V5.93329C17.9974 4.90829 17.214 3.77496 16.2557 3.41663L12.0974 1.8583C11.3891 1.59997 10.2557 1.59997 9.56405 1.8583Z" stroke="#717171" stroke-width="1.5" stroke-linecap="round" stroke-linejoin="round"/>
</g>
<g id="Group_2">
<path id="Vector_2" d="M10.8233 9.09998C10.79 9.09998 10.7483 9.09998 10.715 9.09998C9.93164 9.07498 9.30664 8.42497 9.30664 7.6333C9.30664 6.82497 9.96498 6.16663 10.7733 6.16663C11.5816 6.16663 12.24 6.82497 12.24 7.6333C12.2317 8.4333 11.6066 9.07498 10.8233 9.09998Z" stroke="#717171" stroke-width="1.5" stroke-linecap="round" stroke-linejoin="round"/>
<path id="Vector_3" d="M9.16445 11.4333C8.36445 11.9666 8.36445 12.8416 9.16445 13.375C10.0728 13.9833 11.5645 13.9833 12.4728 13.375C13.2728 12.8416 13.2728 11.9666 12.4728 11.4333C11.5728 10.825 10.0811 10.825 9.16445 11.4333Z" stroke="#717171" stroke-width="1.5" stroke-linecap="round" stroke-linejoin="round"/>
</g>
</g>
</g>
</svg>
