<svg width="14" height="14" viewBox="0 0 14 14" fill="none" xmlns="http://www.w3.org/2000/svg">
<rect width="14" height="14" rx="7" fill="#CBF3FB"/>
<path d="M10.8652 5.88208C10.0356 5.88208 9.69642 5.29541 10.1089 4.57582C10.3473 4.15874 10.2052 3.62707 9.78809 3.38874L8.99517 2.93499C8.63309 2.71957 8.16559 2.84791 7.95017 3.20999L7.89975 3.29707C7.48725 4.01666 6.80892 4.01666 6.39184 3.29707L6.34142 3.20999C6.13517 2.84791 5.66767 2.71957 5.30559 2.93499L4.51267 3.38874C4.09559 3.62707 3.9535 4.16332 4.19184 4.58041C4.60892 5.29541 4.26975 5.88208 3.44017 5.88208C2.9635 5.88208 2.56934 6.27166 2.56934 6.75291V7.55958C2.56934 8.03624 2.95892 8.43041 3.44017 8.43041C4.26975 8.43041 4.60892 9.01707 4.19184 9.73666C3.9535 10.1537 4.09559 10.6854 4.51267 10.9237L5.30559 11.3775C5.66767 11.5929 6.13517 11.4646 6.35059 11.1025L6.401 11.0154C6.8135 10.2958 7.49184 10.2958 7.90892 11.0154L7.95934 11.1025C8.17475 11.4646 8.64225 11.5929 9.00434 11.3775L9.79725 10.9237C10.2143 10.6854 10.3564 10.1492 10.1181 9.73666C9.701 9.01707 10.0402 8.43041 10.8698 8.43041C11.3464 8.43041 11.7406 8.04082 11.7406 7.55958V6.75291C11.736 6.27624 11.3464 5.88208 10.8652 5.88208ZM7.15267 8.64582C6.33225 8.64582 5.66309 7.97666 5.66309 7.15624C5.66309 6.33582 6.33225 5.66666 7.15267 5.66666C7.97309 5.66666 8.64225 6.33582 8.64225 7.15624C8.64225 7.97666 7.97309 8.64582 7.15267 8.64582Z" fill="#0CA6ED"/>
</svg>
