<svg width="21" height="20" viewBox="0 0 21 20" fill="none" xmlns="http://www.w3.org/2000/svg">
<g id="vuesax/linear/setting-2">
<g id="setting-2">
<path id="Vector" d="M10.82 12.5C12.2007 12.5 13.32 11.3807 13.32 10C13.32 8.61929 12.2007 7.5 10.82 7.5C9.4393 7.5 8.32001 8.61929 8.32001 10C8.32001 11.3807 9.4393 12.5 10.82 12.5Z" stroke="currentColor" stroke-width="1.5" stroke-miterlimit="10" stroke-linecap="round" stroke-linejoin="round"/>
<path id="Vector_2" d="M2.48667 10.7333V9.26666C2.48667 8.4 3.195 7.68333 4.07 7.68333C5.57834 7.68333 6.195 6.61666 5.43667 5.30833C5.00334 4.55833 5.26167 3.58333 6.02 3.15L7.46167 2.325C8.12 1.93333 8.97001 2.16666 9.36167 2.825L9.45334 2.98333C10.2033 4.29166 11.4367 4.29166 12.195 2.98333L12.2867 2.825C12.6783 2.16666 13.5283 1.93333 14.1867 2.325L15.6283 3.15C16.3867 3.58333 16.645 4.55833 16.2117 5.30833C15.4533 6.61666 16.07 7.68333 17.5783 7.68333C18.445 7.68333 19.1617 8.39166 19.1617 9.26666V10.7333C19.1617 11.6 18.4533 12.3167 17.5783 12.3167C16.07 12.3167 15.4533 13.3833 16.2117 14.6917C16.645 15.45 16.3867 16.4167 15.6283 16.85L14.1867 17.675C13.5283 18.0667 12.6783 17.8333 12.2867 17.175L12.195 17.0167C11.445 15.7083 10.2117 15.7083 9.45334 17.0167L9.36167 17.175C8.97001 17.8333 8.12 18.0667 7.46167 17.675L6.02 16.85C5.26167 16.4167 5.00334 15.4417 5.43667 14.6917C6.195 13.3833 5.57834 12.3167 4.07 12.3167C3.195 12.3167 2.48667 11.6 2.48667 10.7333Z" stroke="currentColor" stroke-width="1.5" stroke-miterlimit="10" stroke-linecap="round" stroke-linejoin="round"/>
</g>
</g>
</svg>
