<svg width="42" height="43" viewBox="0 0 42 43" fill="none" xmlns="http://www.w3.org/2000/svg">
<g id="vuesax/bold/setting-4">
<g id="setting-4">
<path id="Vector" d="M37.2752 13.7649H27.5102C26.8277 13.7649 26.2852 13.2224 26.2852 12.5399C26.2852 11.8574 26.8277 11.3149 27.5102 11.3149H37.2752C37.9577 11.3149 38.5002 11.8574 38.5002 12.5399C38.5002 13.2224 37.9577 13.7649 37.2752 13.7649Z" fill="#0CA6ED"/>
<path id="Vector_2" d="M11.235 13.7649H4.725C4.0425 13.7649 3.5 13.2224 3.5 12.5399C3.5 11.8574 4.0425 11.3149 4.725 11.3149H11.235C11.9175 11.3149 12.46 11.8574 12.46 12.5399C12.46 13.2224 11.9 13.7649 11.235 13.7649Z" fill="#0CA6ED"/>
<path id="Vector_3" d="M17.745 19.4524C21.5627 19.4524 24.6575 16.3576 24.6575 12.5399C24.6575 8.72227 21.5627 5.62744 17.745 5.62744C13.9274 5.62744 10.8325 8.72227 10.8325 12.5399C10.8325 16.3576 13.9274 19.4524 17.745 19.4524Z" fill="#0CA6ED"/>
<path id="Vector_4" d="M37.275 31.6675H30.765C30.0825 31.6675 29.54 31.125 29.54 30.4425C29.54 29.76 30.0825 29.2175 30.765 29.2175H37.275C37.9575 29.2175 38.5 29.76 38.5 30.4425C38.5 31.125 37.9575 31.6675 37.275 31.6675Z" fill="#0CA6ED"/>
<path id="Vector_5" d="M14.49 31.6675H4.725C4.0425 31.6675 3.5 31.125 3.5 30.4425C3.5 29.76 4.0425 29.2175 4.725 29.2175H14.49C15.1725 29.2175 15.715 29.76 15.715 30.4425C15.715 31.125 15.155 31.6675 14.49 31.6675Z" fill="#0CA6ED"/>
<path id="Vector_6" d="M24.2548 37.3726C28.0725 37.3726 31.1673 34.2778 31.1673 30.4601C31.1673 26.6424 28.0725 23.5476 24.2548 23.5476C20.4371 23.5476 17.3423 26.6424 17.3423 30.4601C17.3423 34.2778 20.4371 37.3726 24.2548 37.3726Z" fill="#0CA6ED"/>
</g>
</g>
</svg>
