<svg width="48" height="49" viewBox="0 0 48 49" fill="none" xmlns="http://www.w3.org/2000/svg">
<g id="vuesax/bold/task-square">
<g id="task-square">
<path id="Vector" d="M32.38 4.5H15.62C8.34 4.5 4 8.84 4 16.12V32.88C4 40.16 8.34 44.5 15.62 44.5H32.38C39.66 44.5 44 40.16 44 32.88V16.12C44 8.84 39.66 4.5 32.38 4.5ZM19.94 30.3L15.44 34.8C15.14 35.1 14.76 35.24 14.38 35.24C14 35.24 13.6 35.1 13.32 34.8L11.82 33.3C11.22 32.72 11.22 31.76 11.82 31.18C12.4 30.6 13.34 30.6 13.94 31.18L14.38 31.62L17.82 28.18C18.4 27.6 19.34 27.6 19.94 28.18C20.52 28.76 20.52 29.72 19.94 30.3ZM19.94 16.3L15.44 20.8C15.14 21.1 14.76 21.24 14.38 21.24C14 21.24 13.6 21.1 13.32 20.8L11.82 19.3C11.22 18.72 11.22 17.76 11.82 17.18C12.4 16.6 13.34 16.6 13.94 17.18L14.38 17.62L17.82 14.18C18.4 13.6 19.34 13.6 19.94 14.18C20.52 14.76 20.52 15.72 19.94 16.3ZM35.12 33.74H24.62C23.8 33.74 23.12 33.06 23.12 32.24C23.12 31.42 23.8 30.74 24.62 30.74H35.12C35.96 30.74 36.62 31.42 36.62 32.24C36.62 33.06 35.96 33.74 35.12 33.74ZM35.12 19.74H24.62C23.8 19.74 23.12 19.06 23.12 18.24C23.12 17.42 23.8 16.74 24.62 16.74H35.12C35.96 16.74 36.62 17.42 36.62 18.24C36.62 19.06 35.96 19.74 35.12 19.74Z" fill="#28A745"/>
</g>
</g>
</svg>
