<svg width="31" height="31" viewBox="0 0 31 31" fill="none" xmlns="http://www.w3.org/2000/svg">
<circle cx="15.5" cy="15.1914" r="12" fill="currentColor"/>
<path d="M19.75 9H11.625C10.7109 9 10 9.73633 10 10.625V20.375C10 21.2891 10.7109 22 11.625 22H19.75C20.6387 22 21.375 21.2891 21.375 20.375V10.625C21.375 9.73633 20.6387 9 19.75 9ZM11.625 11.8438C11.625 11.6406 11.8027 11.4375 12.0312 11.4375H12.8438C13.0469 11.4375 13.25 11.6406 13.25 11.8438V12.6562C13.25 12.8848 13.0469 13.0625 12.8438 13.0625H12.0312C11.8027 13.0625 11.625 12.8848 11.625 12.6562V11.8438ZM13.25 19.1562C13.25 19.3848 13.0469 19.5625 12.8438 19.5625H12.0312C11.8027 19.5625 11.625 19.3848 11.625 19.1562V18.3438C11.625 18.1406 11.8027 17.9375 12.0312 17.9375H12.8438C13.0469 17.9375 13.25 18.1406 13.25 18.3438V19.1562ZM14.1387 14.7891L12.7168 16.2109C12.6406 16.2871 12.5391 16.3125 12.4375 16.3125C12.3105 16.3125 12.209 16.2871 12.1328 16.2109L11.5234 15.6016C11.3711 15.4492 11.3711 15.1699 11.5234 15.0176C11.6758 14.8652 11.9551 14.8652 12.1074 15.0176L12.4375 15.3477L13.5547 14.2051C13.707 14.0527 13.9863 14.0527 14.1387 14.2051C14.291 14.3574 14.291 14.6367 14.1387 14.7891ZM19.3438 19.1562H15.2812C15.0527 19.1562 14.875 18.9785 14.875 18.75C14.875 18.5469 15.0527 18.3438 15.2812 18.3438H19.3438C19.5469 18.3438 19.75 18.5469 19.75 18.75C19.75 18.9785 19.5469 19.1562 19.3438 19.1562ZM19.3438 15.9062H15.2812C15.0527 15.9062 14.875 15.7285 14.875 15.5C14.875 15.2969 15.0527 15.0938 15.2812 15.0938H19.3438C19.5469 15.0938 19.75 15.2969 19.75 15.5C19.75 15.7285 19.5469 15.9062 19.3438 15.9062ZM19.3438 12.6562H15.2812C15.0527 12.6562 14.875 12.4785 14.875 12.25C14.875 12.0469 15.0527 11.8438 15.2812 11.8438H19.3438C19.5469 11.8438 19.75 12.0469 19.75 12.25C19.75 12.4785 19.5469 12.6562 19.3438 12.6562Z" fill="white"/>
<circle cx="15.5" cy="15.1914" r="14.5" stroke="currentColor"/>
</svg>
