<svg width="21" height="20" viewBox="0 0 21 20" fill="none" xmlns="http://www.w3.org/2000/svg">
<g id="vuesax/linear/teacher">
<g id="teacher">
<path id="Vector" d="M8.69753 2.10836L3.68086 5.38336C2.07253 6.43336 2.07253 8.78336 3.68086 9.83336L8.69753 13.1084C9.59753 13.7 11.0809 13.7 11.9809 13.1084L16.9725 9.83336C18.5725 8.78336 18.5725 6.4417 16.9725 5.3917L11.9809 2.1167C11.0809 1.5167 9.59753 1.5167 8.69753 2.10836Z" stroke="#717171" stroke-width="1.5" stroke-linecap="round" stroke-linejoin="round"/>
<path id="Vector_2" d="M5.01419 10.9L5.00586 14.8084C5.00586 15.8667 5.82253 17 6.82253 17.3334L9.48086 18.2167C9.93919 18.3667 10.6975 18.3667 11.1642 18.2167L13.8225 17.3334C14.8225 17 15.6392 15.8667 15.6392 14.8084V10.9417" stroke="#717171" stroke-width="1.5" stroke-linecap="round" stroke-linejoin="round"/>
<path id="Vector_3" d="M18.1553 12.5V7.5" stroke="#717171" stroke-width="1.5" stroke-linecap="round" stroke-linejoin="round"/>
</g>
</g>
</svg>
