<svg width="33" height="32" viewBox="0 0 33 32" fill="currentColor" xmlns="http://www.w3.org/2000/svg">
<circle cx="16.2" cy="15.9987" r="10.6667" fill="white"/>
<path d="M16.1999 2.66797C8.85324 2.66797 2.86658 8.65464 2.86658 16.0013C2.86658 23.348 8.85324 29.3346 16.1999 29.3346C23.5466 29.3346 29.5332 23.348 29.5332 16.0013C29.5332 8.65464 23.5466 2.66797 16.1999 2.66797ZM22.5732 12.9346L15.0132 20.4946C14.8266 20.6813 14.5732 20.788 14.3066 20.788C14.0399 20.788 13.7866 20.6813 13.5999 20.4946L9.82658 16.7213C9.43991 16.3346 9.43991 15.6946 9.82658 15.308C10.2132 14.9213 10.8532 14.9213 11.2399 15.308L14.3066 18.3746L21.1599 11.5213C21.5466 11.1346 22.1866 11.1346 22.5732 11.5213C22.9599 11.908 22.9599 12.5346 22.5732 12.9346Z"/>
</svg>
