<svg width="20" height="20" viewBox="0 0 20 20" fill="currentColor" xmlns="http://www.w3.org/2000/svg">
<g id="vuesax/bold/trash">
<g id="trash">
<path id="Vector" d="M17.5089 4.85597L17.511 4.85616C17.5811 4.86284 17.6367 4.92364 17.6351 4.99782C17.625 5.0619 17.5687 5.10842 17.5084 5.10842H17.5082H17.5081H17.5079H17.5078H17.5077H17.5075H17.5074H17.5072H17.5071H17.5069H17.5068H17.5066H17.5065H17.5064H17.5062H17.5061H17.5059H17.5058H17.5056H17.5055H17.5053H17.5052H17.5051H17.5049H17.5048H17.5046H17.5045H17.5044H17.5042H17.5041H17.5039H17.5038H17.5036H17.5035H17.5034H17.5032H17.5031H17.5029H17.5028H17.5027H17.5025H17.5024H17.5023H17.5021H17.502H17.5018H17.5017H17.5016H17.5014H17.5013H17.5011H17.501H17.5009H17.5007H17.5006H17.5005H17.5003H17.5002H17.5H17.4999H17.4998H17.4996H17.4995H17.4994H17.4992H17.4991H17.499H17.4988H17.4987H17.4986H17.4984H17.4983H17.4981H17.498H17.4979H17.4977H17.4976H17.4975H17.4973H17.4972H17.4971H17.4969H17.4968H17.4967H17.4965H17.4964H17.4963H17.4961H17.496H17.4959H17.4957H17.4956H17.4955H17.4954H17.4952H17.4951H17.495H17.4948H17.4947H17.4946H17.4944H17.4943H17.4942H17.494H17.4939H17.4938H17.4936H17.4935H17.4934H17.4933H17.4931H17.493H17.4929H17.4927H17.4926H17.4925H17.4924H17.4922H17.4921H17.492H17.4918H17.4917H17.4916H17.4914H17.4913H17.4912H17.4911H17.4909H17.4908H17.4907H17.4906H17.4904H17.4903H17.4902H17.49H17.4899H17.4898H17.4897H17.4895H17.4894H17.4893H17.4892H17.489H17.4889H17.4888H17.4886H17.4885H17.4884H17.4883H17.4881H17.488H17.4879H17.4878H17.4876H17.4875H17.4874H17.4873H17.4871H17.487H17.4869H17.4868H17.4866H17.4865H17.4864H17.4863H17.4861H17.486H17.4859H17.4858H17.4856H17.4855H17.4854H17.4853H17.4851H17.485H17.4849H17.4848H17.4846H17.4845H17.4844H17.4843H17.4841H17.484H17.4839H17.4838H17.4836H17.4835H17.4834H17.4833H17.4831H17.483H17.4829H17.4828H17.4826H17.4825H17.4824H17.4823H17.4822H17.482H17.4819H17.4818H17.4817H17.4815H17.4814H17.4813H17.4812H17.481H17.4809H17.4808H17.4807H17.4806H17.4804H17.4803H17.4802H17.4801H17.4799H17.4798H17.4797H17.4796H17.4795H17.4793H17.4792H17.4791H17.479H17.4788H17.4787H17.4786H17.4785H17.4783H17.4782H17.4781H17.478H17.4779H17.4777H17.4776H17.4775H17.4774H17.4772H17.4771H17.477H17.4769H17.4768H17.4766H17.4765H17.4764H17.4763H17.4761H17.476H17.4759H17.4758H17.4757H17.4755H17.4754H17.4753H17.4752H17.475H17.4749H17.4748H17.4747H17.4746H17.4744H17.4743H17.4742H17.4741H17.474H17.4738H17.4737H17.4736H17.4735H17.4733H17.4732H17.4731H17.473H17.4729H17.4727H17.4726H17.4725H17.4724H17.4722H17.4721H17.472H17.4719H17.4718H17.4716H17.4715H17.4714H17.4713H17.4711H17.471H17.4709H17.4708H17.4706H17.4705H17.4704H17.4703H17.4702H17.47H17.4699H17.4698H17.4697H17.4695H17.4694H17.4693H17.4692H17.4691H17.4689H17.4688H17.4687H17.4686H17.4684H17.4683H17.4682H17.4681H17.4679H17.4678H17.4677H17.4676H17.4675H17.4673H17.4672H17.4671H17.467H17.4668H17.4667H17.4666C13.0393 4.6667 8.61207 4.49894 4.20928 4.93583C4.20919 4.93584 4.2091 4.93585 4.20901 4.93586L2.51098 5.10233C2.51083 5.10235 2.51068 5.10236 2.51053 5.10238C2.43403 5.10945 2.37912 5.05916 2.37269 4.9932C2.36618 4.92647 2.41482 4.86324 2.48912 4.85616L2.48912 4.85616L2.4905 4.85603L4.18988 4.68942C4.18997 4.68941 4.19006 4.68941 4.19015 4.6894C4.95576 4.61531 5.72268 4.56579 6.49891 4.51571L6.89574 4.49011L6.96012 4.0977L7.13505 3.03146C7.13506 3.03137 7.13508 3.03128 7.13509 3.03119C7.20506 2.60705 7.27217 2.26515 7.48098 2.00788C7.6621 1.78473 8.02657 1.54175 8.90005 1.54175H11.0834C11.9545 1.54175 12.3219 1.79315 12.5058 2.02402C12.7174 2.28979 12.7827 2.63668 12.8482 3.03887L12.8482 3.03888L12.8487 3.04184L13.025 4.08376V4.52308L13.4973 4.54931C14.8411 4.62396 16.1754 4.72344 17.5089 4.85597Z" stroke="currentColor"/>
<path id="Vector_2" d="M16.0254 6.78325C15.8254 6.57492 15.5504 6.45825 15.2671 6.45825H4.73378C4.45044 6.45825 4.16711 6.57492 3.97544 6.78325C3.78378 6.99159 3.67544 7.27492 3.69211 7.56659L4.20878 16.1166C4.30044 17.3833 4.41711 18.9666 7.32544 18.9666H12.6754C15.5838 18.9666 15.7004 17.3916 15.7921 16.1166L16.3088 7.57492C16.3254 7.27492 16.2171 6.99159 16.0254 6.78325ZM11.3838 14.7916H8.60878C8.26711 14.7916 7.98378 14.5083 7.98378 14.1666C7.98378 13.8249 8.26711 13.5416 8.60878 13.5416H11.3838C11.7254 13.5416 12.0088 13.8249 12.0088 14.1666C12.0088 14.5083 11.7254 14.7916 11.3838 14.7916ZM12.0838 11.4583H7.91711C7.57544 11.4583 7.29211 11.1749 7.29211 10.8333C7.29211 10.4916 7.57544 10.2083 7.91711 10.2083H12.0838C12.4254 10.2083 12.7088 10.4916 12.7088 10.8333C12.7088 11.1749 12.4254 11.4583 12.0838 11.4583Z" fill="currentColor"/>
</g>
</g>
</svg>
