<svg width="44" height="44" viewBox="0 0 44 44" fill="currentColor" xmlns="http://www.w3.org/2000/svg">
<path d="M33 3.66797H11C7.95667 3.66797 5.5 6.1063 5.5 9.11297V29.1146C5.5 32.1213 7.95667 34.5596 11 34.5596H12.3933C13.86 34.5596 15.2533 35.128 16.28 36.1546L19.415 39.253C20.845 40.6646 23.1733 40.6646 24.6033 39.253L27.7383 36.1546C28.765 35.128 30.1767 34.5596 31.625 34.5596H33C36.0433 34.5596 38.5 32.1213 38.5 29.1146V9.11297C38.5 6.1063 36.0433 3.66797 33 3.66797ZM22 10.543C24.365 10.543 26.2717 12.4496 26.2717 14.8146C26.2717 17.1796 24.365 19.0863 22 19.0863C19.635 19.0863 17.7283 17.1613 17.7283 14.8146C17.7283 12.4496 19.635 10.543 22 10.543ZM26.9133 27.6113H17.0867C15.6017 27.6113 14.74 25.9613 15.565 24.733C16.8117 22.8813 19.2317 21.6346 22 21.6346C24.7683 21.6346 27.1883 22.8813 28.435 24.733C29.26 25.9613 28.38 27.6113 26.9133 27.6113Z"/>
</svg>
