<svg width="20" height="19" viewBox="0 0 20 19" fill="none" xmlns="http://www.w3.org/2000/svg">
<path d="M7.72759 1.77344C5.74344 1.77344 4.13037 3.38651 4.13037 5.37066C4.13037 7.31695 5.65256 8.89215 7.63672 8.96031C7.6973 8.95274 7.75789 8.95274 7.80332 8.96031C7.81847 8.96031 7.82604 8.96031 7.84119 8.96031C7.84876 8.96031 7.84876 8.96031 7.85634 8.96031C9.79505 8.89215 11.3172 7.31695 11.3248 5.37066C11.3248 3.38651 9.71174 1.77344 7.72759 1.77344Z" fill="#A7A7A7"/>
<path d="M11.5751 10.9744C9.46219 9.56582 6.01643 9.56582 3.88839 10.9744C2.9266 11.6181 2.39648 12.489 2.39648 13.4205C2.39648 14.352 2.9266 15.2154 3.88081 15.8515C4.94105 16.5634 6.3345 16.9193 7.72795 16.9193C9.1214 16.9193 10.5148 16.5634 11.5751 15.8515C12.5293 15.2078 13.0594 14.3444 13.0594 13.4054C13.0518 12.4739 12.5293 11.6106 11.5751 10.9744Z" fill="#A7A7A7"/>
<path d="M16.0506 5.81472C16.1718 7.2839 15.1267 8.57133 13.6803 8.74551C13.6727 8.74551 13.6727 8.74551 13.6651 8.74551H13.6424C13.597 8.74551 13.5515 8.74551 13.5137 8.76066C12.7791 8.79852 12.1051 8.56376 11.5977 8.13209C12.3777 7.43536 12.8245 6.39028 12.7336 5.25431C12.6806 4.64089 12.4686 4.08048 12.1505 3.60338C12.4383 3.45949 12.7715 3.36861 13.1123 3.33832C14.5966 3.20958 15.9219 4.31525 16.0506 5.81472Z" fill="#A7A7A7"/>
<path d="M17.5653 12.8243C17.5047 13.5589 17.0352 14.195 16.2476 14.6267C15.4903 15.0432 14.5361 15.2401 13.5894 15.2174C14.1347 14.7251 14.4528 14.1117 14.5134 13.4604C14.5891 12.5213 14.1423 11.6201 13.2486 10.9007C12.7413 10.4993 12.1505 10.1812 11.5068 9.94648C13.1805 9.4618 15.2858 9.78745 16.5808 10.8325C17.2775 11.3929 17.6335 12.0972 17.5653 12.8243Z" fill="#A7A7A7"/>
</svg>
