<svg width="45" height="44" viewBox="0 0 45 44" fill="currentColor" xmlns="http://www.w3.org/2000/svg">
<path d="M36.268 10.7263L25.378 4.43797C23.5997 3.4113 21.3997 3.4113 19.603 4.43797L8.73136 10.7263C6.95303 11.753 5.85303 13.6596 5.85303 15.7313V28.2713C5.85303 30.3246 6.95303 32.2313 8.73136 33.2763L19.6214 39.5646C21.3997 40.5913 23.5997 40.5913 25.3964 39.5646L36.2864 33.2763C38.0647 32.2496 39.1647 30.343 39.1647 28.2713V15.7313C39.1464 13.6596 38.0464 11.7713 36.268 10.7263ZM22.4997 13.458C24.8647 13.458 26.7714 15.3646 26.7714 17.7296C26.7714 20.0946 24.8647 22.0013 22.4997 22.0013C20.1347 22.0013 18.228 20.0946 18.228 17.7296C18.228 15.383 20.1347 13.458 22.4997 13.458ZM27.413 30.5446H17.5864C16.1014 30.5446 15.2397 28.8946 16.0647 27.6663C17.3114 25.8146 19.7314 24.568 22.4997 24.568C25.268 24.568 27.688 25.8146 28.9347 27.6663C29.7597 28.8763 28.8797 30.5446 27.413 30.5446Z"/>
</svg>
