<svg width="20" height="20" viewBox="0 0 20 20" fill="none" xmlns="http://www.w3.org/2000/svg">
<path d="M17.3888 5.5829L17.3887 5.58298L17.3972 5.58734C17.506 5.64303 17.6615 5.75105 17.7912 5.95259C17.9195 6.15183 18.0418 6.47202 18.0418 6.98398V13.0173C18.0418 13.5293 17.9195 13.8495 17.7912 14.0487C17.6615 14.2502 17.506 14.3583 17.3972 14.414L17.3972 14.4139L17.3923 14.4165C17.2855 14.4728 17.1238 14.534 16.9168 14.534C16.674 14.534 16.3235 14.4568 15.8812 14.1429L15.8806 14.1425L14.6556 13.2758L13.8999 12.7411L13.8671 13.6663C13.8233 14.9054 13.535 15.6445 13.0457 16.0905C12.5492 16.5429 11.7393 16.7923 10.4168 16.7923H5.41683C4.08647 16.7923 3.24569 16.333 2.72802 15.7118C2.19749 15.0752 1.9585 14.2101 1.9585 13.334V6.66732C1.9585 5.28822 2.23022 4.4652 2.72247 3.97295C3.21472 3.4807 4.03773 3.20898 5.41683 3.20898H10.4168C11.7393 3.20898 12.5492 3.45843 13.0457 3.91083C13.535 4.35677 13.8233 5.09587 13.8671 6.33499L13.8999 7.26017L14.6556 6.72549L15.8788 5.8601C15.8791 5.85991 15.8794 5.85971 15.8796 5.85952C16.299 5.56579 16.631 5.48106 16.8672 5.47104C17.106 5.4609 17.2822 5.52572 17.3888 5.5829ZM7.10016 7.91732C7.10016 9.06185 8.03408 9.98398 9.16683 9.98398C10.2996 9.98398 11.2335 9.06185 11.2335 7.91732C11.2335 6.77278 10.2996 5.85065 9.16683 5.85065C8.03408 5.85065 7.10016 6.77278 7.10016 7.91732Z" fill="white" stroke="white"/>
</svg>
