<svg width="20" height="19" viewBox="0 0 20 19" fill="none" xmlns="http://www.w3.org/2000/svg">
<path d="M16.9291 4.85588C16.6186 4.68927 15.9673 4.51509 15.0813 5.13608L13.968 5.92368C13.8847 3.56845 12.8624 2.64453 10.3784 2.64453H5.83453C3.24453 2.64453 2.2373 3.65175 2.2373 6.24175V12.3002C2.2373 14.042 3.18394 15.8975 5.83453 15.8975H10.3784C12.8624 15.8975 13.8847 14.9735 13.968 12.6183L15.0813 13.4059C15.5508 13.7391 15.9598 13.8451 16.2854 13.8451C16.5656 13.8451 16.7852 13.7618 16.9291 13.6861C17.2396 13.5271 17.7622 13.0954 17.7622 12.0125V6.52953C17.7622 5.44658 17.2396 5.01491 16.9291 4.85588ZM9.24242 8.80146C8.46239 8.80146 7.81868 8.16532 7.81868 7.37772C7.81868 6.59012 8.46239 5.95398 9.24242 5.95398C10.0225 5.95398 10.6662 6.59012 10.6662 7.37772C10.6662 8.16532 10.0225 8.80146 9.24242 8.80146Z" fill="#0CA6ED"/>
</svg>
